<svg xmlns="http://www.w3.org/2000/svg" viewBox="0 0 250 250">
	<path d="M224.5 62.9L204 51l5.3-3.1-10.1-5.8-5.2 3-40-23.3 5.1-3-10-5.8-5.1 2.9L125 5l-18.3 10.6-5.3-3-10.1 5.8 5.3 3.1-40 23-5.5-3.2L41 47.1l5.5 3.2-21 12.1 19.9 11.5-5.4 3.2 10 5.8 5.4-3.1L95.6 103l-5.6 3.3 10 5.8 5.6-3.3 19.3 11.2 19.4-11.1 5.6 3.3 10-5.8-5.6-3.2 40.3-23.1 5.5 3.2 10-5.8-5.4-3.1 19.8-11.5zm-55.1 10.2l-24.8-14.4L119.7 73l24.8 14.4-15.8 9.1L67.2 61 83 51.9l24 13.8 24.8-14.3-23.9-13.9 15.9-9.2L185.3 64l-15.9 9.1z" fill="#cdcdcd"/>
	<path d="M125 167v-11.6l-5.8-3.3v-22.2l-19.3-11.1.1.1V112l-10-5.8v6.8L50.1 90v-7.1l-10-5.8v7.1L19.7 72.4v25.1l-5.8-3.3v11.6l5.8 3.3v46.3l-5.8-3.3v11.6l5.8 3.3v20.3L40 199v6.7l10 5.8v-6.7l40 23.1v6.8l10 5.7v-6.7l19.2 11.1v-23.2l5.8 3.3v-11.6l-5.8-3.3v-46.3l5.8 3.3zm-29-13.4L77.7 143v55.8l-16.4-9.5v-55.8L43 123v-15.1l53 30.6v15.1z" fill="#9b9b9b"/>
	<path d="M236.1 104.6V93l-5.8 3.3V72.9l-20.1 11.5v-7.1l-10 5.8v7.1l-40.1 23v-6.9l-10 5.8v6.8l-19.3 11v22.2l-5.8 3.3V167l5.8-3.3V210l-5.8 3.3v11.6l5.8-3.3V245l19.3-11v6.4l10-5.7v-6.4l40.1-22.8v6.2l10-5.7v-6.2l20.1-11.4v-22.5l5.8-3.3V151l-5.8 3.3V108l5.8-3.4zM211.4 177l-14.2 8.1-.1-32.6-11.7 39.3-10.3 5.9-11.7-25.5v32.2l-14 8v-71.1l12.7-7.2 18.4 38.1 18.3-59.1 12.6-7.2V177z" fill="#acacac"/>
</svg>