<svg version="1.1"
	xmlns="http://www.w3.org/2000/svg" viewBox="0 0 1487 100" xml:space="preserve">
	<pattern y="100" width="1486.8" height="500" patternUnits="userSpaceOnUse" id="Clouds" viewBox="0 -500 1486.8 500">
		<g>
			<path fill="#0DA0C5" d="M1486.8,0H0c0,0-0.1-26.5,0-26.5c7.8,0,15.6,0.9,23.3,3c4.1-6.5,9.6-12.1,16.1-16.3c25.2-16.4,59-9.2,75.3,16
			c8.5-1.4,17.2-0.8,25.3,1.9c1.6-28.4,18.3-53.8,43.9-66.3c38.9-19,85.9-2.9,105.1,36.2c9.8-9,22.5-14.2,35.9-14.5
			c30-0.7,54.9,23.1,55.6,53.2c0.5,0.3,0.9,0.6,1.4,0.8c3.8,2.1,7.3,4.9,10.3,8c18.5-27.6,53.6-38.8,84.6-27.1
			c4-10.7,10.3-20.2,18.5-27.9c28.8-26.8,73.9-25.2,100.7,3.6c7.8-7.7,19.4-9.8,29.5-5.6c12.8-16.3,30.3-28.3,50.2-34.2
			c52.9-15.7,108.5,14.4,124.3,66.9c5.5,0.7,10.8,2.2,15.8,4.4c5.2-16.6,18.3-29.7,34.8-35.3c28.6-9.4,59.4,6.1,68.8,34.7
			c16.5,1.4,32.2,8,44.7,18.8c5.1-16.5,15.4-30.9,29.5-40.9c35.4-25.2,84.5-16.9,109.7,18.4c13.9-6.6,30.2-6.4,44,0.7
			c4.7-13.4,18-21.9,32.2-20.3c0.3-0.2,0.4-0.6,0.6-0.9c9.2-16.3,22.8-29.8,39.3-38.7c48.5-26.3,109.1-8.3,135.5,40.1
			c3.6-3,7.5-5.7,11.6-8c37.9-21.2,85.8-7.8,107.1,30.1c4.4-0.6,8.8-0.9,13.2-0.9V0z"/>
		</g>
	</pattern>
	<rect fill="url(#Clouds)" width="100%" height="100%"/>
</svg>
