<?xml version="1.0" encoding="utf-8"?>
<!-- Generator: Adobe Illustrator 25.0.1, SVG Export Plug-In . SVG Version: 6.00 Build 0)  -->
<svg version="1.1" id="Layer_1" xmlns="http://www.w3.org/2000/svg" xmlns:xlink="http://www.w3.org/1999/xlink" x="0px" y="0px"
	 viewBox="0 0 1487 100" style="enable-background:new 0 0 1487 100;" xml:space="preserve">
<style type="text/css">
	.st0{fill:#0DA0C5;}
</style>
<g>
	<path class="st0" d="M1487,73.4c-4.4,0-8.8,0.3-13.2,0.9c-21.3-37.9-69.2-51.3-107.1-30.1c-4.1,2.3-8,5-11.6,8
		c-26.4-48.4-87-66.4-135.5-40.1c-16.5,8.9-30.1,22.4-39.3,38.7c-0.2,0.3-0.3,0.7-0.6,0.9c-14.2-1.6-27.5,6.9-32.2,20.3
		c-13.8-7.1-30.1-7.3-44-0.7c-25.2-35.3-74.3-43.6-109.7-18.4c-14.1,10-24.4,24.4-29.5,40.9c-12.5-10.8-28.2-17.4-44.7-18.8
		c-9.4-28.6-40.2-44.1-68.8-34.7C834.3,45.9,821.2,59,816,75.6c-5-2.2-10.3-3.7-15.8-4.4c-15.8-52.5-71.4-82.6-124.3-66.9
		c-19.9,5.9-37.4,17.9-50.2,34.2c-10.1-4.2-21.7-2.1-29.5,5.6c-26.8-28.8-71.9-30.4-100.7-3.6c-8.2,7.7-14.5,17.2-18.5,27.9
		c-31-11.7-66.1-0.5-84.6,27.1c-3-3.1-6.5-5.9-10.3-8c-0.5-0.2-0.9-0.5-1.4-0.8c-0.7-30.1-25.6-53.9-55.6-53.2
		c-13.4,0.3-26.1,5.5-35.9,14.5C270,8.9,223-7.2,184.1,11.8c-25.6,12.5-42.3,37.9-43.9,66.3c-8.1-2.7-16.8-3.3-25.3-1.9
		c-16.3-25.2-50.1-32.4-75.3-16c-6.5,4.2-12,9.8-16.1,16.3c-7.7-2.1-15.5-3-23.3-3c-0.1,0,0,26.5,0,26.5H1487V73.4z"/>
</g>
</svg>
