<?xml version="1.0" encoding="utf-8"?>
<!-- Generator: Adobe Illustrator 25.0.1, SVG Export Plug-In . SVG Version: 6.00 Build 0)  -->
<svg version="1.1" id="Layer_1" xmlns="http://www.w3.org/2000/svg" xmlns:xlink="http://www.w3.org/1999/xlink" x="0px" y="0px"
	 viewBox="0 0 1920 1080" style="enable-background:new 0 0 1920 1080;" xml:space="preserve">
<style type="text/css">
	.st0{fill:#FFFFFF;}
	.st1{fill:#020202;}
</style>
<g>
	<path class="st0" d="M1825.9,1071.1v-32c-45.8-1.9-99-4-151.3-4c-31.8,0-60.8,0.7-88.7,2.2l-1.3,0.1l0.3-1.3
		c0.2-0.9,0.4-1.7,0.6-2.5c0.3-1.3,0.6-2.4,0.7-3.5c0.4-4.2,2.4-6,7.1-6.5c7.3-0.8,14.8-1.7,22-2.7c6.2-0.8,12.6-1.7,18.9-2.4
		c5.5-0.6,7.2-2.6,7.3-8.5l2.2-215c0.1-20.2-0.6-40.8-1.2-60.7c-0.4-12.6-0.8-25.6-1.1-38.5c-0.1-5.9-1.8-7.9-7.3-8.4
		c-7.3-0.7-14.7-1.7-21.8-2.6c-4.9-0.7-10-1.4-15.1-2l-0.3,0c-10.6-1.2-11-1.7-11.5-12.3l0-1h37.5l140.5,0.4
		c14.1-0.1,28.6-0.7,42.5-1.2c4.7-0.2,9.5-0.4,14.2-0.6c8.4-0.3,8.4-0.3,10-8.4c0.1-0.6,0.3-1.3,0.4-1.9c0.6-2.8,1.2-5.5,1.2-8.1
		c0-5.4,2.5-8,7.7-8c1.2,0,2.5-0.3,3.8-0.6c0.4-0.1,0.8-0.2,1.3-0.3l1.3-0.3l-10.1,109.2l-1.2-0.3c-0.9-0.3-1.8-0.5-2.7-0.7
		c-2.2-0.5-4.5-1.1-6.5-2.2c-1.7-0.9-2.5-3.8-2.5-5.5l0-0.1c-0.2-9.2-0.4-18.7,0.1-28.1c0.3-4.7-1.7-7.8-5.7-9.2
		c-1.8-0.6-3.7-1.3-5.5-2c-7.4-2.6-15-5.4-22.7-6.4c-19.1-2.5-38.6-4.4-57.4-6.3c-6.5-0.6-12.9-1.3-19.4-1.9c-0.2,0-0.4,0-0.6,0
		c-0.7,0-1.5,0.1-2.5,0.2c-0.3,0-0.6,0.1-0.9,0.1l-3.3,145.8c0.2,0,0.3,0,0.5,0c1,0.1,1.9,0.2,2.6,0.2c0.2,0,0.4,0,0.6,0l90.3-5.8
		l1.8-0.2c4.8-0.4,7.5-0.7,8.8-1.5c1.1-0.7,1.4-1.8,2.1-5c0.4-1.6,0.8-3.5,1.5-5.9c0.2-0.5,0.2-1,0.3-1.5c0.1-0.4,0.1-0.8,0.2-1.2
		c1.9-9.5,2.3-9.8,13.3-10l1.2,0l-13,97.9l-1.1-0.2c-10.6-2.3-11-2.8-10.5-12.8c0.2-2.8,0.2-5.7,0.3-8.5c0.1-4.2,0.2-8.5,0.6-12.8
		c0.3-3.7-1-5.5-4.5-6.1c-3.1-0.6-6.2-1.3-9.2-2c-7.6-1.7-15.4-3.5-23.2-4.2c-14.4-1.3-28.6-2-43.7-2.8c-6.1-0.3-12.5-0.6-18.9-1
		l3.4,167.6c0.4,0.2,0.6,0.4,0.8,0.6c0.1,0.1,0.2,0.1,0.2,0.2c1.3,0,2.6,0,3.9,0c30.6,0,63.4-1.1,95.3-8.9
		c22.4-5.4,22.5-5.8,27.7-28l3.7-16.8c2.2-10,3.2-10.8,14-11.6l1.2-0.1l-17.1,120.4L1825.9,1071.1z M770.9,1043.2
		c-6.9,0-13.9-0.2-21.1-0.6c-35.9-2.1-64-8.9-88.2-21.5C613,995.9,582,960,569.3,914.4c-12.6-45.7-9.5-91.4,9.2-132.2
		c18.8-41.1,52-74,95.9-95.1c34.4-16.5,72.4-24.5,116.3-24.5l0.9,0c42,0.1,73.3,5.8,101.6,18.5c26,11.6,47.4,26.7,63.5,44.8
		c17.1,19.2,28.9,42.5,35.1,69.3c9,38.8,5.2,82.9-10.4,121.1c-18.4,45.1-52,80.5-97.3,102.5C850.2,1035.2,813.2,1043.2,770.9,1043.2
		z M772.7,684.3c-8.8,0-17.9,0.8-27.1,2.3c-54.5,8.9-91.7,38-110.4,86.6c-19.6,50.6-16,101.4,10.5,150.8
		c33.1,61.2,83.6,92.8,154.3,96.7c2.4-0.4,5.2-0.8,8.2-1.3c7.6-1.1,17.1-2.5,25.9-5.4c44.7-14.6,75.5-46.6,89.1-92.4
		c19.6-65.8,7-126.7-37.4-180.8C855,703.3,817,684.3,772.7,684.3z M1257.9,1039l-117-309l-3.2,17l-25.9,147.2
		c-7.1,42.6-12,78.6-12.6,115.3l0,0.3c0,3.8-0.1,5.9,0.7,6.8c0.8,1,2.8,1.3,6.5,2l30.6,4.8c9.2,1.6,10,2.5,9.6,12l0,1h-134.8
		l0.1-1.1c1.2-9.5,2.1-10.5,11.5-12.1l22.6-3.8c4.2-0.7,6.2-2.5,7.2-6.5l27.2-112.4l44.4-203c0.5-2.1,0.9-4.4,1.3-6.8
		c0.1-0.7,0.3-1.5,0.4-2.3l-29.8-4.3l-11.4-1.5c-10.1-1.6-10.5-1.9-12.2-12l-0.2-1.2h152.6l0,1c0.4,9-0.5,10.1-9.4,11.8l-31.3,6.2
		l93.1,253c0.2,0,0.8,0.1,1,0.1c42.8-97.2,76.1-177.8,104.7-253.3l-23.1-5c-0.4-0.1-0.8-0.1-1.3-0.2c-0.5-0.1-1-0.1-1.5-0.2
		c-10.1-1.7-10.4-2-11.7-12.3l-0.1-1.1h142.3l0.1,0.9c0.9,9.4,0.1,10.4-9,12l-31.1,5.2c-0.8,0.1-1.5,0.3-2.4,0.6
		c-0.4,0.1-0.9,0.3-1.4,0.4l9,48.3l53.6,260.2c0.3,1.5,0.7,3,1.1,4.5c0.7,2.7,1.5,5.6,1.7,8.5c0.6,6.7,4.3,8.5,10.1,9.3
		c5.2,0.6,10.5,1.5,15.6,2.3c2.9,0.5,5.8,1,8.8,1.4c10.6,1.6,11,1.9,12.5,12.2l0.2,1.1h-170.2l0.1-1.1l0.1-0.8
		c0.1-1.1,0.2-2.4,0.2-3.7c-0.1-5.6,3.3-6.6,7.1-7l51.1-5.5l-52.9-288.6c-0.1,0-0.3-0.1-0.5-0.1L1262.3,1039H1257.9z M341.9,1036.4
		l0-1c-0.1-9.5,0.7-10.3,10.5-11.6c5-0.7,10.1-1.4,15.1-2.2c7.1-1.1,14.5-2.2,21.8-3c5.3-0.5,6.3-2.8,6.4-7.4l2.1-97.4
		c0.4-16.2,0.4-32.2,0.3-49.1c0-4.5,0-9.1,0-13.7l-212.5,11.6v5.3l3.4,143.3c0.1,5.3,1.7,7.2,6.7,7.7c6.2,0.7,12.5,1.7,18.5,2.6
		c5.5,0.9,11.1,1.7,16.7,2.4c10,1.2,10.5,1.7,10.7,11.6l0,1H66l0-1c0.2-9.5,1.9-10.4,11.2-11.5c7.4-0.9,15-1.9,22.3-3
		c6.3-0.9,12.8-1.8,19.1-2.6c3.4-0.4,3.6-2.2,3.7-5.5l1.5-62.5l-1.2-248.9c0-1.5,0-2.9,0-4.1c0-4.7,0-7.3-0.7-8.4
		c-0.6-0.9-2.1-1.1-5.7-1.5c-1.9-0.2-4.2-0.5-7.1-0.9c-10.6-1.7-21.5-3-32-4.1l-4.9-0.6c-5.5-0.6-5.8-4.2-6.1-7.1
		c-0.1-1.4-0.2-2.7-0.9-3.6l-1-1.6h177.1l0,1c0.1,9.8-1.1,10.4-10.6,11.6c-7.6,1-15.2,2.1-22.7,3.3c-5,0.8-10.2,1.6-15.3,2.3
		c-2.8,0.4-3.9,1.6-3.9,4.2L185.5,832c0.1,0.1,0.1,0.2,0.2,0.4c17.8,0,35.9,0.1,53.4,0.3c20.1,0.1,40.9,0.3,61.5,0.3
		c37.8,0,68.7-0.5,96.9-1.5l0-0.4c0.2-1.8,0.3-3.1,0.2-4.5l-1.2-118.7c-0.1-3.1-0.3-6.4-0.6-9.6c-0.2-2.1-0.4-4.3-0.5-6.4
		c-0.1-2.7-1.2-3.8-4-4.3l-38.5-5.6l-0.6-0.1c-9.3-1.2-9.7-1.6-10.8-11.4l-0.1-1.1h176l0,1c-0.4,9.1-1.7,10.4-11.2,11.7l-38.6,5.4
		c-4.5,0.5-5.8,2-5.9,6.5l-2.6,180.6c-0.2,29.5,0.6,59.4,1.2,88.4c0.1,4.9,0.2,9.8,0.4,14.7c0.2,7.2,0.7,14.5,1.2,21.6
		c0.3,4.7,0.7,9.6,0.9,14.4c0.2,2.7,1.1,3.8,3.9,4.3l39.7,5.7l0.6,0.1c9,1.2,9.4,1.6,10.8,11.4l0.2,1.1H341.9z M761.3,591.5h-49
		l-0.1-0.8c-0.1-0.3-0.1-0.7-0.1-1c0-0.3,0-0.5-0.1-0.8l-0.2-1l1-0.2c3.4-0.6,6.8-1.2,10.5-1.9v-67.9l-11.4-2.1v-0.8
		c0-0.3,0-0.6,0.1-0.9c0-0.2,0-0.5,0-0.7v-1h11.4l32.7-0.2c5,0,8-0.4,8.4-5.6l0.1-1.4l1.3,0.5c0.3,0.1,0.6,0.2,0.8,0.4
		c0.2,0.1,0.4,0.2,0.7,0.3l0.7,0.3l-2,23.3l-0.7,0.2c-0.2,0.1-0.4,0.1-0.7,0.1c-0.1,0-0.3,0-0.4,0.1l-0.9,0.2l-0.3-0.8
		c-0.1-0.3-0.2-0.6-0.4-0.9c-0.4-0.9-0.9-1.8-0.7-2.8c0.4-1.9,0.2-3.3-0.6-4.3c-0.9-1.2-2.5-1.9-5.2-2.3c-5.4-0.7-10.7-1.3-16.8-2
		l-0.3,0v29c2.6,0.4,5.1,0.6,7.3,0.6c7.2,0,12.2-2,15.3-6l2.2-2.9l-2.9,24.1l-1.1-0.3c-0.3-0.1-0.6-0.1-0.8-0.2
		c-0.4-0.1-1.2-0.2-1.3-0.9c-1-4.1-1.6-6.2-2.8-7.1c-1.2-1-3.5-1.1-8.1-1.3c-0.9,0-1.9,0-2.9,0c-1,0-1.9,0-2.9,0c-0.7,0-1.4,0-2.2,0
		v34.4c1.8-0.2,3.6-0.5,5.4-0.7c5.5-0.7,10.7-1.4,15.9-2.4c1.2-0.2,2.8-3.1,3.4-4.2c0.7-1.3,1.1-2.8,1.5-4.3
		c0.2-0.7,0.4-1.4,0.6-2.1l0.3-0.9l0.9,0.2c0.3,0.1,0.6,0.1,0.8,0.2c0.2,0.1,0.4,0.1,0.7,0.2l0.9,0.2l-3.7,26l-0.7,0.2
		c-0.2,0.1-0.5,0.1-0.8,0.1c-0.2,0-0.4,0-0.5,0.1l-1,0.3L761.3,591.5z M1177.5,599l-1.1-7.3h-49.5l0.2-1.2c0.1-0.5,0.1-1.2,0.1-1.8
		v-0.8l11.3-2.1v-67.9l-11.5-2v-2.9l0.8-0.1c0.3,0,0.6-0.1,1-0.2c1-0.2,2-0.4,3.1-0.4l37.2-0.3c7.8-0.1,7.8-0.1,12.3-6.9l2.2-3.3
		l-2.7,28.2h-0.9c-0.2,0-0.3,0-0.5,0c-0.2,0-0.5,0.1-0.7,0.1h-0.7l-0.2-0.6c-0.1-0.2-0.2-0.5-0.3-0.7c-0.3-0.6-0.7-1.3-0.6-2.1
		c0.5-2.3,0.3-4-0.6-5.2c-1.3-1.8-4.2-2.4-7.1-2.7l-14.9-1.6v29c2.5,0.5,4.9,0.7,7.2,0.7c6.9,0,12.5-2.2,15.3-6.1l2.3-3.1l-3,24.7
		l-1.3-0.6c-0.3-0.2-0.6-0.3-0.8-0.4c-0.5-0.2-1.1-0.5-1.2-1.2c-1.2-7.5-1.2-7.5-9.3-8c-1-0.1-2.1-0.1-3.4-0.1c-1.1,0-2.2,0-3.4,0
		c-0.9,0-1.7,0-2.6,0v34.4c1.2-0.2,2.4-0.3,3.6-0.5c6.5-0.9,12.6-1.8,18.6-2.9c0.4-0.1,1.4-1.1,2.5-3.6c0.6-1.4,1-2.8,1.4-4.4
		c0.2-0.8,0.4-1.5,0.6-2.3l0.3-0.9l0.9,0.2c0.3,0.1,0.6,0.1,0.9,0.2c0.3,0.1,0.5,0.1,0.7,0.2l0.9,0.2l-3.8,26.2h-0.9
		c-0.2,0-0.4,0-0.7,0c-0.3,0-0.6,0.1-0.8,0.1H1177.5z M1045.7,527.6l0.1,47.6c0.3,9.8,0.3,9.8,10.4,11.9l0.3,0.1
		c0.5,0.1,0.9,0.4,1.6,0.9c0.3,0.2,0.6,0.5,1.1,0.8l2.7,1.8h-37.3l1.4-1.7c0.2-0.2,0.3-0.4,0.5-0.6c0.5-0.6,0.9-1.2,1.6-1.2l0.4,0
		c7,0,7.6-4.2,7.9-11c0.2-15.5,0.8-30.6,1.5-46.7c0.2-4,0.3-7.9,0.5-11.9l-5.8-0.9l-6.3-0.6v-3.8l0.9,0c1.2-0.1,2.3-0.1,3.5-0.1
		c2.8-0.1,5.4-0.2,8-0.6c1.6-0.2,3-0.3,4.3-0.3c6.6,0,11.7,2.8,16.2,9c8.3,11.3,17.5,22.3,26.4,32.9c3.7,4.3,7.5,8.8,11.1,13.3
		l3.5,4.3c0.1,0,0.2-0.1,0.3-0.1v-17.1l-1.1-29.8c-0.1-4.7-1.9-6.6-6.4-6.6c-2,0-3.8-0.8-5.4-2.3l-1.9-1.7h35.4l-2.7,1.8
		c-0.4,0.2-0.7,0.5-1,0.8c-0.7,0.6-1.4,1.2-2.3,1.2c-5.1,0-6.1,2.8-6.2,8.2l-2.3,62.4c-0.1,2-0.2,4.3-1.7,7.4l-0.7,1.4L1045.7,527.6
		z M1443.5,594.5c-0.8-0.4-1.6-0.7-2.4-1c-2-0.8-4.1-1.5-5.6-3l-3-3c-8.5-8.4-17.3-17.1-25.2-26.3c-3.5-4.1-6.7-6-10.4-6
		c-1.3,0-2.6,0.2-4,0.6v29.5l12.1,2.2l-0.3,1c0,0.2-0.1,0.3-0.1,0.5c0,0.2-0.1,0.5-0.1,0.7l-0.2,0.8h-38.1l-0.2-0.7
		c-0.1-0.2-0.1-0.4-0.2-0.5c0-0.2-0.1-0.3-0.1-0.5l-0.4-1.1l1.1-0.2c0.9-0.2,1.8-0.4,2.8-0.5c1.8-0.3,3.6-0.7,5.2-1.2
		c1.4-0.5,2.9-1.7,3-2.1l0.2-65.6l-13.8-2.4l1.5-1.4c0.4-0.4,0.7-0.7,1-0.9c0.5-0.5,0.9-0.9,1.5-0.9l46.4,1.2c2,0.1,4.2,0.6,6.9,1.7
		c5.1,1.8,8.7,5.1,10.1,9.2c1.3,4,0.5,8.4-2.3,12.8c-2.2,3.4-5.1,6.4-8.2,9.5c-1.2,1.3-2.5,2.6-3.8,4l28.4,41.2l-0.1,0.4
		c-0.1,0.2-0.1,0.5-0.2,0.7c-0.1,0.2-0.1,0.3-0.2,0.5l-0.3,1.2L1443.5,594.5z M1392.9,550.2c7.8,0,13.3-1.7,17.8-5.4
		c4.6-3.8,6.8-8.9,6-13.9c-0.8-4.8-4.3-8.8-9.6-10.8c-3-1.1-6.3-1.7-9.7-2.2c-1.5-0.2-3-0.5-4.5-0.8V550.2z M706.2,593.8
		c-0.7-0.3-1.5-0.6-2.3-0.9c-1.8-0.7-3.7-1.4-5.1-2.6l-37.9-35c-1.3-1.2-2.3-2.7-3.3-4.1c-0.3-0.4-0.5-0.7-0.8-1.1
		c-5.4,2.8-7.3,5.8-6.8,10.7c0.6,6.9,0.5,14.1,0.3,20.2c-0.1,1.8,0.2,3.1,0.9,3.8c0.7,0.7,1.9,1.1,3.7,1.2c2.8,0.1,5.3,1,7.5,2.7
		l2.3,1.8h-78l-0.2-1c-0.1-0.3-0.2-0.7-0.2-1.1v-0.8l10.9-2.1l-10.2-28.2c-0.2-0.6-1.9-1.5-3-1.5c-6,0.1-12.5,0.5-19.3,1.1
		c-1,0.1-2.5,1.5-2.8,2.5c-1.7,5.9-3.3,11.7-4.9,17.9c-0.7,2.8-1.5,5.6-2.2,8.4l9.5,2v0.8c0,0.3,0,0.5-0.1,0.8c0,0.1,0,0.2,0,0.3v1
		h-61.2l-0.8-2.8l12.1-2.3l-10.5-56.7L477.3,591h-0.7c-0.3,0-0.6,0-0.8-0.1c-0.2,0-0.4,0-0.7,0h-0.7l-23.8-62.2c0,0,0,0-0.1,0
		l-9,56.6l11.1,2.4l-0.2,1c0,0.2-0.1,0.3-0.1,0.5c0,0.2-0.1,0.5-0.1,0.7l-0.2,0.8h-30.5l1.3-1.6c0.1-0.1,0.2-0.3,0.3-0.5
		c0.4-0.6,0.8-1.4,1.7-1.4l0.2,0c5.7,0,6.8-3.6,8-9.1l12.9-57c0.1-0.5,0.1-1.1,0.2-1.7c0-0.3,0.1-0.6,0.1-1l-10.3-2.1v-0.8
		c0-0.2,0-0.5,0.1-0.7c0-0.2,0-0.3,0-0.5v-1h32.5l0.2,0.8c0,0.2,0.1,0.4,0.1,0.5c0.1,0.2,0.1,0.4,0.2,0.6l0.2,1l-8.3,2.2l18.8,50.6
		c0,0,0,0,0,0l21.2-50.3c-1.3-0.5-2.5-0.9-3.6-1.4c-1.1-0.4-2.2-0.9-3.4-1.3l-0.9-0.3l0.3-0.9c0.1-0.2,0.1-0.4,0.1-0.6v-1h30.9
		l0.2,0.8c0,0.2,0.1,0.3,0.1,0.5c0.1,0.2,0.1,0.4,0.2,0.6l0.2,0.9l-9.3,2.6l3.4,17.8l9.4,45.4c0.7,3.5,2,4.8,4.8,4.8l0.3,0
		c0.9,0,1.8,0.1,2.7,0.2c0.9,0.1,1.8,0.2,2.6,0.2c2.7,0,4.2-0.8,5.1-2.9l26.1-65.5l-8.7-2.2l0.2-1c0-0.2,0.1-0.3,0.1-0.5
		c0-0.2,0.1-0.5,0.1-0.7l0.2-0.8h33.3l0.2,0.7c0,0.1,0.1,0.2,0.1,0.3c0.1,0.2,0.2,0.4,0.3,0.6l0.3,1l-8.9,2.8l25.4,64.7
		c1.4,3.6,4.5,3.9,7.9,3.9l1.8,0c0.5,0,0.9,0,1.3,0c1.4,0.1,2.6,0.1,3.5,0.1c6.7,0,7.5-1.2,7.7-10.9l0.1-54.5c0-3.3-0.9-4.2-3.9-4.3
		c-3-0.1-5.5-1-7.8-2.8l-2.3-1.8h39.8l0.2,0.7c0.1,0.2,0.1,0.4,0.1,0.6c0,0.1,0,0.2,0.1,0.3l0.3,0.9l-0.9,0.3
		c-0.3,0.1-0.6,0.3-0.9,0.4c-0.9,0.4-1.7,0.8-2.7,0.8c-0.3,0-0.5,0-0.8,0c-2.4,0-4.1,0.5-5.1,1.6c-1.2,1.3-1.7,3.5-1.4,7.2
		c0.3,5.1,0.2,10.1,0.2,15.9c0,1.9,0,3.9-0.1,5.9l32.8-29.5l-7.7-2.4v-0.7c0-0.2,0-0.4,0.1-0.6c0-0.1,0-0.3,0-0.4v-1h34.9l-6.2,2
		c-9.7,3.1-17.1,9.5-24.9,16.3c-3.7,3.2-7.4,6.5-11.5,9.5l40.8,50.5l-0.2,0.5c-0.2,0.5-0.4,1.1-0.6,1.5l-0.4,0.9L706.2,593.8z
		 M584.6,550.1l-9.9-28.2l-10.2,28.2H584.6z M342.4,593c-1.8-0.3-3.7-0.5-5.5-0.8c-3.6-0.5-7.4-0.9-11-2
		c-15.4-4.4-24.8-13.8-27.9-28c-3.6-16.6,1.5-30.5,14.7-40.1c10.3-7.6,21.5-11.4,33.1-11.4c8.6,0,17.3,2.1,25.9,6.2
		c11.1,5.4,18.3,15.5,19.7,28c1.6,13.9-4.3,27.7-15.7,36.9c-8.4,6.7-19.9,10.6-33.2,11.2l-0.1,0L342.4,593z M342.5,517.6
		c-4.2,0-8.3,0.8-12.3,2.4c-12.4,4.9-19,15.8-18.3,29.9c0.8,14.9,7.9,25.8,21.2,32.5c4.7,2.3,9.6,3.5,14.5,3.5c0,0,0,0,0,0
		c7.7,0,14.9-3,20.2-8.5c5.5-5.6,8.5-13.5,8.5-22.2c0-10.1-3.7-20-10.1-27C359.9,521.4,351.5,517.6,342.5,517.6z M1493.2,592.6
		c-10,0-19.3-2.5-26.6-7.1c-10.8-6.7-17.3-17.8-17.8-30.5c-0.6-12.9,5.3-25.4,15.8-33.3c9.1-7,20.1-10.4,34.6-10.9l0.1,0l0.1,0
		c1.3,0.2,2.7,0.3,4.1,0.4c3.4,0.3,6.9,0.7,10.2,1.6c14.4,3.6,24.5,12.4,28.2,24.6c4,13,0.3,28.7-9,39.2
		C1523.8,586.7,1509,592.6,1493.2,592.6z M1494.2,517.6c-18.1,0-30.8,12.6-30.8,30.6c0,12.3,5,22.3,14.7,29.9
		c6.9,5.4,13.8,8.1,20.7,8.1c0,0,0,0,0,0c4.4,0,8.7-1.1,13-3.3c11.5-5.9,16.9-16.1,16.1-30.5C1526.8,532.9,1512,517.6,1494.2,517.6z
		 M969,592.5c-12.5,0-23.6-3.8-31.5-10.7c-8.8-7.7-13.5-18.8-13-30.5c0.5-12,6.5-23,16.5-30.3c11-7.9,23.5-10,34.3-11.1l0.2,0l0.2,0
		c2.2,0.6,4.6,1.1,6.8,1.5c5.3,1.1,10.8,2.3,15.7,4.5c9.9,4.5,16.9,12.5,19.8,22.7c3.1,11.1,0.9,23.4-6.1,33.7
		C1003.6,584.7,986.8,592.5,969,592.5z M970,517.6c-18.1,0-30.8,12.5-30.8,30.5c0,12.4,5.1,22.6,15.1,30.2
		c6.8,5.1,13.6,7.7,20.4,7.7c4.5,0,9-1.2,13.3-3.5c11.2-5.9,16.4-16.1,15.6-30.2C1002.5,533,987.8,517.7,970,517.6L970,517.6z
		 M831.4,528.9C831.4,528.9,831.4,528.9,831.4,528.9l-9,56.2l11.2,3.1l-0.3,1c-0.1,0.3-0.2,0.6-0.3,0.9l-0.2,0.8l-29.9,0l0.7-1.4
		c0.1-0.2,0.2-0.5,0.3-0.7c0.2-0.7,0.5-1.4,1.3-1.4c6.6,0,7.7-4.7,8.9-10.1l12.4-55.2c0.1-0.7,0.2-1.5,0.4-2.3
		c0.1-0.4,0.1-0.9,0.2-1.4l-10.4-2.2v-0.8c0-0.2,0-0.5,0.1-0.7c0-0.2,0-0.3,0-0.5v-1h32.3l0.2,0.7c0,0,0.1,0.1,0.1,0.2
		c0.1,0.2,0.2,0.3,0.3,0.6l0.3,0.9l-8.3,2.8l18.8,50.5l21.2-50.4l-7.9-3l0.8-2.5h30.6l0.2,0.8c0,0.2,0.1,0.4,0.1,0.5
		c0.1,0.2,0.1,0.4,0.2,0.6l0.2,0.9l-9.4,2.6l4.9,25.7l7.5,35.3c0.9,5,2.1,7.3,6.4,7.3c0.2,0,0.4,0,0.6,0c0,0,0,0,0,0
		c1.4,0,2.5,0.8,3.7,2.4l1.1,1.6h-37.2l-0.2-0.9c-0.1-0.3-0.2-0.7-0.2-1.2v-0.8l11.8-2.2l-10.5-56.8l-26.2,62.1l-2.9,0.6
		L831.4,528.9z M1572.4,528.8C1572.4,528.8,1572.4,528.8,1572.4,528.8l-9,56.6l11.1,2.4l-0.2,1c0,0.2-0.1,0.3-0.1,0.5
		c0,0.2-0.1,0.5-0.1,0.7l-0.2,0.8h-30.7l1.4-1.6c0.1-0.2,0.3-0.4,0.4-0.6c0.4-0.6,0.9-1.3,1.7-1.3c0.2,0,0.3,0,0.4,0
		c5.4,0,6.5-3.5,7.8-9.1l12.8-56.5c0.2-0.8,0.2-1.5,0.3-2.4c0-0.3,0-0.5,0.1-0.8l-10.3-2.2v-0.8c0-0.2,0-0.5,0.1-0.7
		c0-0.2,0-0.3,0-0.5v-1h32.5l0.2,0.8c0,0.2,0.1,0.4,0.1,0.5c0.1,0.2,0.1,0.4,0.2,0.6l0.2,1l-8.3,2.2l18.8,50.6c0,0,0,0,0,0
		l21.2-50.6l-8-2.6l0.2-0.9c0.1-0.2,0.1-0.4,0.2-0.6c0-0.2,0.1-0.3,0.1-0.5l0.2-0.8h30.7l0.2,0.8c0,0.2,0.1,0.4,0.1,0.5
		c0.1,0.2,0.1,0.4,0.2,0.6l0.2,0.9l-9.4,2.6l4.9,25.7l7.5,35.3c1,5.1,2.1,7.3,6.4,7.3c0.2,0,0.4,0,0.6,0c0,0,0,0,0,0
		c1.3,0,2.6,0.9,3.7,2.4l1.1,1.6h-37.2l-0.2-1c-0.1-0.3-0.2-0.7-0.2-1.1v-0.8l11.8-2.3l-10.6-56.8l-26.1,62.1l-2.9,0.6L1572.4,528.8
		z M231.1,590.8l-0.7-3.2l1.1-0.2c1-0.1,2-0.3,2.9-0.5c2.3-0.4,4.7-0.8,7.1-0.9c2.8-0.1,3.7-1,3.7-3.9l-0.1-61.3
		c0-0.3-0.1-0.7-0.3-1.3c-0.1-0.3-0.2-0.7-0.3-1.2c-1.5,0.2-3.1,0.5-4.6,0.7c-6.3,1-12.7,1.9-18.9,3.3c-0.9,0.2-2.4,2.1-3.3,4.2
		c-0.6,1.4-0.9,2.9-1.1,4.5c-0.1,0.8-0.2,1.5-0.4,2.2l-0.2,0.9l-3.7-0.6l1.6-27.9h0.9c0.7,0,1.1,0,1.6-0.1l0.9-0.2l1.9,8.1H265
		c3.1,0,6.3-0.2,9.4-0.3c3.1-0.2,6.3-0.4,9.5-0.4c4,0,5.8-0.6,5.9-4.3c0-1.3,1.3-2.3,3.5-2.7l1.3-0.2L291,535h-0.9
		c-0.7,0-1.6,0-2.3-0.1l-0.9-0.1v-0.9c0-0.8,0-1.6,0.1-2.5c0.1-1.8,0.2-3.6-0.2-5.2c-0.4-1.8-1.8-3.8-2.5-3.9
		c-5.5-1.2-11.1-2-17-2.9c-2.2-0.3-4.4-0.7-6.6-1c-0.1,1.6-0.2,3-0.3,4.4c-0.2,2.5-0.3,4.7-0.3,6.8l0.1,51.6c0,3.7,1,4.8,4.5,4.9
		c3.2,0,6.4,1,9.4,2.9l3,1.8H231.1z M1212.8,590.7l-0.2-0.8c-0.1-0.2-0.1-0.5-0.1-0.7c0-0.2,0-0.3-0.1-0.5l-0.3-1l10.4-2.1
		c-0.3-4-0.1-8.1,0.1-12c0.5-9.9,1-19.3-6.3-27.7c-3-3.4-5.4-7.4-7.8-11.3c-5-8.2-9.8-16-19.7-19.4l-5.5-1.9h39.6l0.9,2.6l-9.4,2.6
		l19.5,30.1l18.1-29.9l-8.9-2.5l0.2-0.9c0-0.1,0.1-0.3,0.1-0.4c0-0.2,0.1-0.5,0.1-0.7l0.2-0.7l0.7,0c8.7-0.2,17.5-0.2,26-0.2l0.2,2
		c-7.4,1.5-11,6.8-14.7,12.4c-1.6,2.4-3.3,4.9-5.2,7c-11.2,12.1-15.5,26.6-13.4,45.7c0.5,4.5,1.1,6.2,5.2,6.2c2.1,0,4,0.9,5.6,2.6
		l1.5,1.7H1212.8z M1297.1,590.6l-0.3-0.5c-0.1-0.2-0.2-0.4-0.2-0.6c0,0,0-0.1,0-0.1l-0.5-0.9l1-0.4c0.2-0.1,0.4-0.2,0.6-0.3
		c0.8-0.4,1.5-0.7,2.4-0.9l0.2,0c8.3-1.6,8.3-1.6,8.4-10l-0.1-55.6c0-0.7-0.2-1.5-0.3-2.4c-0.1-0.3-0.1-0.5-0.2-0.8l-11.6-2.1v-0.8
		c0-0.3,0-0.6,0.1-0.9c0-0.2,0-0.4,0-0.6v-0.9l0.9-0.1c0.6,0,1.2-0.1,1.8-0.2c1-0.1,1.9-0.2,2.9-0.2l39.5-0.1c3,0,6.1,0,7.7-1.6
		c0.9-1,1.4-2.5,1.4-4.7c0-1.1,1.2-2,3-2.3l1.2-0.2l-1.8,28.2l-0.7,0.2c-0.3,0.1-0.5,0.1-0.8,0.1c-0.2,0-0.4,0-0.6,0.1l-0.9,0.2
		l-0.3-0.9c-0.1-0.3-0.2-0.6-0.4-0.9c-0.4-0.8-0.8-1.7-0.6-2.7c0.5-4.6-1.5-7-7-7.8l-17.7-2.6V548c1.6-0.1,3.3-0.2,5-0.3
		c4.8-0.3,9.7-0.5,14.5-1.3c0.5-0.1,1.4-1.8,2.1-3.2c0.6-1.1,1.2-2.4,2-3.7l2.1-3.3l-1.5,28.7l-0.9,0.2c-0.3,0.1-0.7,0.2-1.2,0.2
		h-0.6l-0.3-0.6c-0.1-0.2-0.2-0.3-0.3-0.5c-0.4-0.5-0.8-1.1-0.7-1.9c0.4-2.7,0.1-4.6-1-5.9c-1.3-1.6-3.8-2.3-7.8-2.5
		c-3-0.1-5.9-0.3-9-0.5c-0.9-0.1-1.7-0.1-2.6-0.2l0.1,30.6c0.1,0.4,1.5,1.6,2.6,1.9c0.7,0.2,1.4,0.4,2.2,0.5c2.1,0.5,4.3,1,6.5,2.4
		l2.9,1.8H1297.1z M1468.4,112.2L1336.7,443l-3.7-0.5l-0.2-0.6c-0.9-2.5-1.7-4.9-2.6-7.4c-2.3-6.5-4.7-13.2-6.8-19.9l-79.3-256.5
		c-7.1-22.6-15-45.3-22.6-67.4c-4.9-14.1-10-28.8-14.8-43.2c-2.3-7-6.1-10.2-13.2-11c-4.1-0.5-8.3-1.3-12.3-2.1
		c-4.3-0.8-8.7-1.7-13.1-2.1c-6.4-0.7-9.1-3.5-9-9.6c0-0.8-0.2-1.8-0.4-2.6c-0.1-0.3-0.1-0.6-0.2-0.8l-0.2-1.2H1333v1
		c0,0.1,0,0.3-0.2,1.6c-1.8,10.1-2.1,10.5-12.2,12l-40.8,6l77.5,281.8c6.9-17.7,14-35.5,20.9-52.8c27.7-69.4,56.3-141.2,79.2-214.5
		l-34.2-5.6l-9.6-1.4c-11.4-1.6-11.8-1.9-13.6-13.5l-0.2-1.2h159.7l0.1-0.1l0.5,0c0.8,0,1.1,0.9,1.1,1.4
		c-0.8,11.1-1.2,11.5-11.9,13.3l-0.6,0.1c-8.2,1.3-17.3,3-27.6,5c-1.3,0.3-2.5,0.7-4.1,1.4c-0.5,0.2-1,0.4-1.5,0.6l100.8,272.9
		c0.1,0,0.2,0,0.3,0c6.2-21.3,12.8-43,19.1-63.9c21.9-72.3,44.6-147.1,58.6-223.6l-29.3-4.5c-1.1-0.2-2.2-0.4-3.3-0.5
		c-4.7-0.8-9.1-1.5-13.6-1.7c-5.7-0.2-8.5-2.8-9.1-8.3c-0.1-1.2-0.4-2.4-0.6-3.3c-0.1-0.4-0.2-0.8-0.2-1.1l-0.2-1.2h148.4l-0.1,1.1
		c-0.1,0.6-0.2,1.3-0.3,2.1c-0.2,1.3-0.5,2.7-0.5,4.1c0,4.7-2.8,5.8-5.9,6.4c-3.8,0.6-7.7,1.5-11.5,2.2c-3.8,0.8-7.7,1.6-11.5,2.3
		c-6.2,1-10.1,4.2-12.5,10.3c-3.1,7.9-6.3,15.8-9.5,23.5c-5.7,14-11.7,28.5-16.8,43l-113.8,329.4l-0.6,0.1c-0.7,0.1-1.3,0.2-2,0.4
		l-0.9,0.2L1468.4,112.2z M900.4,424.1c-8.1,0-16.4-0.3-24.9-0.8c-33.6-2.1-59.9-7.8-82.7-18c-59.8-26.5-97.5-68.1-112.3-123.6
		c-13.3-49.9-9.4-99.5,11.3-143.6c20.6-43.9,56.4-79,103.5-101.6C833.6,18.2,875.1,10,929.9,10l1,0c39.3,0.3,74.3,7.2,103.9,20.7
		c59.8,27,95.8,70.9,107,130.3c15.7,83.4-16.3,189.5-123.2,238.7C982.9,416.1,944.3,424.1,900.4,424.1z M739.5,198.9
		c0.2,2.5,0.4,5,0.5,7.4c0.4,6.2,0.8,12.5,1.8,18.6c11.1,70.8,47.4,122.7,108,154.5c25.1,13.1,50.3,19.8,75.1,19.8c0,0,0,0,0,0
		c13.6,0,27.3-2,40.7-6c50.9-15.3,85.7-51.1,100.5-103.7c20.7-73.1,5.7-139.8-44.5-198.3c-32.8-38.3-73.2-57.7-120-57.7
		c-10.1,0-20.5,0.9-31.1,2.8c-53.3,9.3-91.9,37.9-114.5,85C745.7,143.2,740.4,167.9,739.5,198.9z M434.5,416.5l0-1
		c-0.1-10.7,1.2-11.5,11.8-12.8c10.1-1.3,20.3-2.8,30.2-4.3c2.8-0.4,5.6-0.8,8.4-1.2c7.9-1.1,7.9-1.1,8.1-8.8l2.1-67.6l0.3-105.3
		l-230.7,12v7.7l3.6,152.5c0.2,7.9,0.2,7.9,8.4,9.2c11.5,1.9,23.8,3.9,36.3,5.4l1.1,0.1c10.2,1.2,10.5,1.6,11.7,12.6l0.1,1.1h-191
		l0-1c-0.2-9.3,1.8-11.5,11.6-12.6l44.9-5.9c4.5-0.5,4.7-2.8,4.8-6.9l2.1-134.2l-1-177.8c0-5.2-0.3-10.5-0.5-15.7
		c-0.2-5.8-0.5-11.7-0.5-17.5c0-4.4-1.6-6.2-6-6.7L146.6,32c-10.8-1.3-11.2-1.8-12.1-12.7l-0.1-1.1H326l-0.2,1.2
		c-0.1,0.4-0.2,0.9-0.3,1.4c-0.3,1.3-0.7,2.8-0.8,4.3c-0.3,5.3-3.8,6.2-7.2,6.6l-43.1,5.9c-4.3,0.6-6,2.3-6,6.2l-3.6,149
		c0,0.3,0.1,0.6,0.2,1.1c0.1,0.2,0.1,0.5,0.2,0.7c5.4,0,10.9,0,16.3,0c18.6,0,37.5,0.1,55.9,0.2c18.3,0.1,37.2,0.2,55.9,0.2
		c40.8,0,72.3-0.5,102-1.6c0-0.9,0.1-1.6,0.1-2.3c0.1-1.1,0.1-2.1,0.1-3.1L494.3,66c-0.1-5.5-0.5-11-0.9-16.3
		c-0.1-1.8-0.3-3.6-0.4-5.4c-0.2-4.2-1.8-6-5.8-6.5c-7.1-0.9-14.4-1.9-21.3-3c-6-0.9-12.2-1.8-18.4-2.6l-0.6-0.1
		c-10.6-1.4-10.9-1.7-12.7-12.6l-0.2-1.2h191.7l-0.1,0.6l0.3,1.4h-0.5c-1.9,10.1-2.5,10.5-13,12l-46.8,6.7c-0.1,1.2-0.3,2.3-0.4,3.5
		c-0.4,3.4-0.8,6.6-0.9,9.9c-3.2,89.8-3.5,186-1,294.1c0.2,9.3,0.9,18.8,1.5,27.9c0.4,5.7,0.8,11.5,1.2,17.3
		c0.2,3.1,1.3,4.3,4.6,4.8l42.5,6.1l0.8,0.1c10.1,1.2,10.5,1.7,11.6,12.6l0.1,1.1H434.5z"/>
	<path class="st1" d="M929.9,11c0.3,0,0.7,0,1,0c31,0.2,68.3,4.6,103.5,20.6c56.8,25.7,94.7,67.5,106.4,129.6
		c15.7,83.5-17,189-122.6,237.6c-37.8,17.4-77.2,24.3-117.8,24.3c-8.2,0-16.5-0.3-24.8-0.8c-28.4-1.8-56.3-6.3-82.4-17.9
		c-55.2-24.5-96-63.8-111.7-122.9c-27-101.4,19-198.3,114.3-244C833.6,19.3,874.7,11,929.9,11 M924.9,400.2c13.5,0,27.2-1.9,41-6.1
		c52.7-15.8,86.6-52.6,101.2-104.4c20.8-73.6,5-141.3-44.7-199.2C989.8,52.4,949,32.4,901.7,32.4c-10.1,0-20.6,0.9-31.3,2.8
		c-52.4,9.1-91.9,37-115.2,85.6c-11.7,24.7-15.9,51.1-16.7,78.1c0.7,8.8,1,17.6,2.3,26.2c10.9,69.4,45.9,122.4,108.5,155.2
		C873.5,392.9,898.8,400.2,924.9,400.2 M1785.5,19c-0.2,1.8-0.8,4-0.8,6.3c0,3.6-1.7,4.8-5.1,5.4c-7.7,1.3-15.3,3.2-23,4.5
		c-6.7,1.1-10.8,4.7-13.3,10.9c-8.7,22.2-18.4,44.1-26.3,66.6l-113.6,328.8c-0.7,0.1-1.4,0.2-2.1,0.4l-132.9-332.4l-132.3,332.4
		l-2.3-0.3c-3.2-9.1-6.6-18.1-9.4-27.2l-79.3-256.5c-11.7-37.1-25.1-73.7-37.4-110.6c-2.4-7.2-6.5-10.8-14-11.7
		c-8.5-1-16.9-3.3-25.4-4.2c-5.8-0.6-8.2-3-8.1-8.6c0-1.3-0.4-2.6-0.6-3.6H1332c0,0.1-0.1,0.8-0.2,1.5c-1.7,9.8-1.7,9.7-11.7,11.2
		l-41.6,6.1l78.6,285.8c35.2-89.7,72.6-178.3,101.6-271.2l-35.3-5.8l-9.6-1.4c-11-1.5-11-1.5-12.8-12.7h159.2c0-0.1,0-0.1,0-0.1
		c0,0,0.1,0.2,0.1,0.4c-0.8,10.8-0.8,10.6-11.7,12.4c-9.2,1.5-18.4,3.2-27.6,5c-2,0.4-3.9,1.3-6.7,2.3l101.4,274.5
		c0.6,0,1.2,0,1.8-0.1c27.9-95.5,60-190,78.1-289.3l-30.3-4.7c-5.7-0.9-11.3-2-17-2.2c-5.3-0.2-7.6-2.5-8.1-7.4
		c-0.2-1.7-0.6-3.4-0.8-4.5H1785.5 M624.7,19.1c0,0,0,0.1,0,0.4h-0.1c0-0.1,0-0.1,0-0.2C624.6,19.2,624.6,19.1,624.7,19.1
		 M324.8,19.2c-0.3,1.5-1,3.7-1.1,5.9c-0.2,4.2-2.6,5.2-6.3,5.7l-43.1,5.9c-4.4,0.6-6.8,2.4-6.9,7.2l-3.6,149c0,0.7,0.3,1.4,0.6,2.9
		c5.7,0,11.4,0,17.1,0c37.2,0,74.5,0.4,111.7,0.4c34.3,0,68.6-0.3,103-1.7c0.1-2.8,0.3-4.6,0.3-6.4L495.3,66
		c-0.1-7.3-0.8-14.5-1.3-21.7c-0.2-4.3-1.9-6.8-6.7-7.4c-13.3-1.6-26.4-3.9-39.7-5.6c-10.7-1.4-10.7-1.2-12.4-11.8h189.4
		c-2,10.4-1.9,10.5-12.4,12l-47.6,6.8c-0.5,4.8-1.2,9.5-1.4,14.2c-3.5,98-3.3,196.1-1,294.2c0.3,15.1,1.9,30.1,2.7,45.2
		c0.2,3.8,1.9,5.2,5.5,5.7l42.5,6.1c10.4,1.3,10.5,1,11.6,11.8h-189c-0.1-9.9,0.7-10.5,10.9-11.8c12.9-1.6,25.7-3.6,38.6-5.5
		c8.4-1.2,8.7-1.3,9-9.8l2.1-67.6l0.3-106.4l-232.7,12.1v8.6l3.6,152.5c0.2,8.6,0.4,8.8,9.2,10.2c12.1,2,24.1,3.9,36.3,5.4
		c10.8,1.3,10.8,0.9,11.9,11.8H135.8c-0.2-8.9,1.6-10.6,10.7-11.6l44.9-5.9c5.3-0.6,5.6-3.8,5.7-7.9l2.1-134.2l-1-177.8
		c-0.1-11.1-1-22.2-1-33.2c0-5-2.1-7.1-6.9-7.7L147.1,31c-10.6-1.3-10.7-1.2-11.6-11.8H324.8 M1353.9,504.5l-1.7,26.2
		c-0.4,0.1-0.8,0.1-1.3,0.2c-0.3-1-1.1-2.1-0.9-3.1c0.7-5.9-2.6-8.2-7.8-9l-18.9-2.8v33.1c6.5-0.5,13.7-0.6,20.7-1.7
		c1.6-0.3,2.6-3.9,4.8-7.4l-1.3,24.1c-0.4,0.1-0.7,0.2-1.1,0.2c-0.3-0.6-1-1.2-0.9-1.7c1.2-7.7-3.5-9.4-9.8-9.6
		c-4.2-0.1-8.3-0.5-12.7-0.8l0.1,31.7c0,1,2,2.5,3.3,2.9c2.8,0.8,5.7,1.1,8.4,2.8h-37.1c-0.1-0.2-0.1-0.5-0.2-0.7
		c0.9-0.4,1.8-0.9,2.8-1.1c9-1.7,9.3-1.7,9.4-11l-0.1-55.6c0-1.3-0.4-2.6-0.6-4l-11.5-2.1c0-0.5,0.1-1,0.1-1.5
		c1.5-0.1,3.1-0.4,4.6-0.4l39.5-0.1c5.3,0,10.2-0.1,10.1-7.3C1351.8,505.3,1352.5,504.7,1353.9,504.5 M1182.2,505.7L1180,529
		c-0.4,0-0.8,0.1-1.2,0.1c-0.3-0.8-1-1.6-0.9-2.3c1.4-7.1-3.3-8.4-8.6-9l-16-1.7V547c2.8,0.6,5.6,0.9,8.2,0.9
		c7.2,0,13.1-2.3,16.1-6.5l-2.4,19.5c-1-0.5-1.5-0.6-1.5-0.8c-1.3-8.2-1.4-8.4-10.2-8.9c-1.1-0.1-2.3-0.1-3.4-0.1
		c-2.3,0-4.6,0.1-7,0.1v36.5c8.3-1.2,15.9-2.2,23.4-3.6c1.3-0.3,2.5-2.6,3.2-4.2c1-2.1,1.4-4.5,2.1-6.8c0.5,0.1,1.1,0.3,1.6,0.4
		l-3.5,24.4c-0.5,0-1,0.1-1.5,0.1l-1.1-7.3h-49.2c0.1-0.6,0.1-1.3,0.1-2l11.3-2.1V517l-11.5-2v-1.2c1.3-0.2,2.6-0.5,3.9-0.5
		l37.2-0.3C1177.4,512.9,1177.4,512.9,1182.2,505.7 M216.6,506.5l1.9,8H265c6.3,0,12.6-0.7,18.9-0.7c3.9,0,6.8-0.6,6.9-5.3
		c0-0.7,0.9-1.4,2.7-1.7l-3.4,27.2c-0.7,0-1.5,0-2.2-0.1c0-2.6,0.4-5.4-0.1-7.9c-0.4-1.8-1.9-4.4-3.3-4.7c-8-1.7-16.1-2.7-24.8-4.1
		c-0.2,4.9-0.6,8.7-0.6,12.4l0.1,51.6c0,4.1,1.3,5.8,5.5,5.9c3,0,6,0.9,8.9,2.7h-41.7l-0.3-1.4c3.3-0.5,6.6-1.3,9.9-1.4
		c3.5-0.1,4.7-1.6,4.7-4.9l-0.1-61.3c0-0.7-0.3-1.4-0.8-3.7c-8.2,1.3-16.5,2.4-24.5,4.2c-1.6,0.4-3.2,2.9-4,4.8
		c-1,2.1-1.1,4.6-1.6,6.9l-1.9-0.3l1.5-26.1C215.5,506.6,216,506.6,216.6,506.5 M765.4,506.6c0.5,0.2,1,0.5,1.5,0.7l-1.9,21.8
		c-0.4,0.1-0.7,0.1-1.1,0.2c-0.4-1.1-1.2-2.2-1-3.2c1-5.4-2.1-7.2-6.6-7.8c-5.8-0.8-11.6-1.4-18.2-2.1v31c3,0.5,5.8,0.7,8.3,0.7
		c7.5,0,12.8-2.1,16.1-6.4l-2.3,19.3c-0.7-0.2-1.4-0.2-1.4-0.3c-2.2-8.8-2.2-8.8-11.8-9.3c-1,0-1.9,0-2.9,0c-2,0-4,0-6.1,0v36.5
		c8-1.1,15.3-1.8,22.5-3.3c1.6-0.3,3.1-2.9,4.1-4.7c1.1-2,1.5-4.4,2.2-6.6c0.5,0.1,1,0.3,1.5,0.4l-3.5,24.4
		c-0.4,0.1-0.9,0.1-1.3,0.2l-1.4-7.6h-49c-0.1-0.6-0.1-1.2-0.2-1.8c3.6-0.6,7.2-1.3,11.3-2.1V517l-11.4-2.1c0-0.5,0.1-1.1,0.1-1.6
		h10.4l32.7-0.2C760.4,513.1,764.9,513,765.4,506.6 M975.4,511c7.5,1.9,15.5,2.9,22.4,6c21,9.5,26.8,35,13.2,55
		c-8.6,12.7-25.5,19.5-42,19.5c-11.5,0-22.8-3.4-30.8-10.4c-18.2-16-16.6-44.6,3.4-59.2C951.6,514.7,963,512.2,975.4,511 M974.7,587
		c4.5,0,9.2-1.1,13.8-3.6c12.2-6.5,16.9-17.6,16.1-31.1c-1.1-20-16.3-35.6-34.6-35.7c-18.7,0-31.8,12.9-31.8,31.5
		c0,12.9,5.4,23.3,15.5,31C960.3,584,967.3,587,974.7,587 M345.9,511.7c8.4,0,17,2.1,25.5,6.1c24.3,11.7,26,45.4,3.8,63.2
		c-8.4,6.7-19.7,10.4-32.6,11c-5.4-0.9-11-1.2-16.3-2.7c-14-4-24-12.6-27.2-27.3c-3.4-15.9,1.3-29.6,14.3-39.1
		C323.7,515.4,334.7,511.7,345.9,511.7 M347.5,586.9c16.2,0,29.8-12.9,29.8-31.6c0-10.4-3.8-20.5-10.4-27.7
		c-6.6-7.2-15.3-11-24.4-11c-4.2,0-8.5,0.8-12.7,2.5c-12.6,5-19.7,16.1-18.9,30.9c0.8,15.1,8.2,26.5,21.7,33.3
		C337.6,585.8,342.7,586.9,347.5,586.9 M1499.2,511.8c4.7,0.6,9.6,0.8,14.1,2c34.9,8.8,34.7,44.3,18.7,62.2
		c-9.1,10.2-24.1,15.6-38.8,15.6c-9.4,0-18.6-2.2-26.1-6.9c-22.4-14-23.3-46-1.9-62.2C1475.3,514.8,1486.9,512.2,1499.2,511.8
		L1499.2,511.8 M1498.8,587.2c4.4,0,8.9-1.1,13.5-3.4c12.5-6.4,17.4-17.6,16.6-31.4c-1.1-20.1-16.4-35.8-34.7-35.8
		c-18.7,0-31.8,12.9-31.8,31.6c0,12.7,5.2,23,15.1,30.7C1484.1,584.1,1491.3,587.2,1498.8,587.2 M1043.2,512.3
		c6.2,0,10.9,2.4,15.4,8.6c11.7,16,25,30.9,37.6,46.2l4,4.8c0.5-0.2,1.1-0.4,1.6-0.5v-17.9l-1.1-29.8c-0.1-5.2-2.3-7.6-7.4-7.6
		c-1.6,0-3.2-0.6-4.7-2h29.6c-1.2,0.8-2,1.8-2.8,1.8c-6.4,0-7.1,4.3-7.2,9.2l-2.3,62.4c-0.1,2-0.2,4.1-1.6,7l-59.6-69.6l0.1,50.3
		c0.3,10.7,0.8,10.7,11.5,12.9c0.5,0.1,0.9,0.5,2.4,1.5h-31.8c0.6-0.7,1-1.4,1.3-1.4c0.2,0,0.3,0,0.4,0c8.2,0,8.7-5.4,8.9-12
		c0.2-19.7,1.2-39.4,2-59.5l-6.7-1l-5.4-0.5v-1.9c3.9-0.2,7.8-0.1,11.6-0.7C1040.5,512.4,1041.8,512.3,1043.2,512.3 M1367.8,513.6
		l46.4,1.2c2.2,0.1,4.5,0.8,6.6,1.6c9.7,3.5,12.9,11.9,7.3,20.5c-3.2,4.8-7.7,8.8-12.4,14l28.6,41.5c-0.1,0.4-0.3,0.8-0.4,1.2
		c-2.6-1.2-5.8-1.9-7.8-3.8c-9.6-9.5-19.4-19-28.2-29.2c-3.5-4.1-6.9-6.3-11.1-6.3c-1.5,0-3.2,0.3-5,0.9v31.1l11.9,2.2
		c-0.1,0.4-0.1,0.8-0.2,1.2h-36.6c-0.1-0.3-0.2-0.7-0.3-1c2.7-0.6,5.5-0.9,8.1-1.8c1.5-0.5,3.7-2,3.7-3l0.2-66.5l-12.6-2.2
		C1367.1,514.2,1367.5,513.6,1367.8,513.6 M1392.8,551.2c6.8,0,13.2-1.2,18.5-5.6c10.1-8.3,8.3-21.7-3.8-26.4
		c-4.7-1.8-9.9-2.1-15.6-3.3v35.3C1392.2,551.2,1392.5,551.2,1392.8,551.2 M904.5,513.9c0.1,0.4,0.2,0.7,0.3,1.1l-9.3,2.6l5.1,26.6
		l7.5,35.3c0.9,4.6,2.1,8.1,7.3,8.1c0.2,0,0.4,0,0.7,0c1,0,1.9,0.7,2.8,2h-34.5c-0.1-0.4-0.2-0.7-0.2-1.1l12-2.2l-10.9-59.1
		c-0.4-0.1-0.7-0.2-1.1-0.2l-26.6,62.9l-1.6,0.3l-23.9-62.3c-0.5,0-1.1-0.1-1.6-0.1l-9.2,58l11,3.1c-0.1,0.3-0.2,0.6-0.3,1v0h-27.5
		c0.3-0.6,0.5-1.6,0.7-1.6c7.6,0,8.7-5.6,10-11.3l12.3-54.8c0.3-1.5,0.4-3,0.7-4.7l-10.5-2.2c0-0.4,0.1-0.8,0.1-1.2h30.6
		c0.1,0.3,0.3,0.5,0.4,0.8l-8.3,2.8l20,53.8l22.6-53.7l-8-3l0.3-0.9H904.5 M1645.5,514c0.1,0.4,0.2,0.7,0.3,1.1l-9.3,2.6l5.1,26.6
		l7.5,35.3c0.9,4.6,2,8.1,7.3,8.1c0.2,0,0.4,0,0.7,0c0.9,0,1.9,0.7,2.8,2h-34.5c-0.1-0.4-0.2-0.7-0.2-1.1l12-2.3l-11-59.1
		c-0.2,0-0.4-0.1-0.6-0.1c-0.2,0-0.4,0-0.6,0.1h0l-26.4,62.7l-1.6,0.3l-23.9-62.4c-0.5,0-1.1-0.1-1.6-0.1l-9.2,58.4l11,2.4
		c-0.1,0.4-0.1,0.8-0.2,1.3h-27.7c0.5-0.6,0.9-1.5,1.3-1.5c0.1,0,0.3,0,0.4,0c6.5,0,7.6-4.9,8.8-10l12.8-56.4
		c0.3-1.3,0.3-2.6,0.5-4.2l-10.4-2.2c0-0.4,0.1-0.8,0.1-1.2h30.7c0.1,0.4,0.2,0.7,0.3,1.1l-8.4,2.2l19.4,52.2
		c0.5,0.1,0.9,0.1,1.4,0.2l21.9-52.3l-8.1-2.6c0.1-0.4,0.2-0.7,0.3-1.1H1645.5 M1270.6,514.1c-11.2,2.2-14.1,12.8-20.5,19.7
		c-12.4,13.3-15.6,29-13.7,46.5c0.5,4.6,1.2,7.1,6.2,7.1c1.7,0,3.4,0.7,4.8,2.3h-33.8c-0.1-0.4-0.1-0.8-0.2-1.2l10.3-2.1
		c-1.4-14,4.3-28.7-6.5-41.2c-9.1-10.4-12.8-25.7-27.9-31h33l0.3,0.9l-9.7,2.7l21.1,32.6l19.6-32.4l-9.2-2.6
		c0.1-0.4,0.1-0.8,0.2-1.1C1253.3,514.1,1261.9,514.1,1270.6,514.1 M703.7,514.1c-14.9,4.7-24.4,17.1-37.6,26.5l41.1,50.9
		c-0.2,0.5-0.4,1-0.6,1.4c-2.4-1.1-5.3-1.7-7.2-3.4l-37.9-35c-1.8-1.7-3.1-3.9-4.5-5.7c-6,2.9-8.7,6.1-8.1,12.1
		c0.6,6.6,0.5,13.4,0.3,20.1c-0.2,4.2,1.5,5.9,5.6,6c2.4,0.1,4.7,0.8,6.9,2.5h-74.3c-0.1-0.4-0.2-0.7-0.2-1.1l11.2-2.2l-10.6-29.3
		c-0.4-1.1-2.6-2.2-3.9-2.2c-6.5,0.1-13,0.5-19.4,1.1c-1.4,0.1-3.3,1.8-3.7,3.2c-2.6,8.9-4.8,17.7-7.4,27.3l9.7,2.1
		c0,0.4-0.1,0.8-0.1,1.1h-59.5l-0.3-1l12-2.3l-10.9-59.1l-1-0.3L476.6,590c-0.5,0-1-0.1-1.5-0.1l-23.8-62.2c-0.5,0-1.1-0.1-1.6-0.1
		l-9.3,58.4l11,2.4c-0.1,0.4-0.1,0.8-0.2,1.3h-27.6c0.4-0.5,0.8-1.5,1.2-1.5c0.1,0,0.1,0,0.2,0c6.7,0,7.9-4.8,9-9.9l12.9-57
		c0.2-1.1,0.2-2.2,0.4-3.7l-10.4-2.1c0-0.4,0.1-0.8,0.1-1.2h30.7c0.1,0.4,0.2,0.7,0.3,1.1l-8.4,2.2l19.4,52.2
		c0.5,0.1,0.9,0.1,1.4,0.2l21.9-52c-3.1-1.1-5.5-2.1-8-3c0.1-0.3,0.2-0.6,0.2-0.9h29.1c0.1,0.4,0.2,0.7,0.3,1.1l-9.3,2.6l3.6,18.7
		l9.4,45.4c0.7,3.4,2,5.6,5.8,5.6c0.1,0,0.2,0,0.3,0c1.7,0,3.6,0.3,5.4,0.3c2.5,0,4.7-0.6,6-3.5l26.5-66.6l-8.8-2.2
		c0.1-0.4,0.1-0.8,0.2-1.2h31.8c0.1,0.3,0.3,0.6,0.4,0.9l-9,2.8l25.8,65.7c1.7,4.3,5.4,4.6,8.8,4.6c0.6,0,1.2,0,1.8,0
		c0.4,0,0.9,0,1.3,0c1.3,0.1,2.5,0.1,3.6,0.1c7.7,0,8.5-2.3,8.7-11.9l0.1-54.5c0-3.7-1.2-5.2-4.9-5.3c-2.5-0.1-4.9-0.8-7.2-2.6h36.2
		c0.1,0.3,0.1,0.6,0.2,0.9c-1.1,0.4-2.2,1.1-3.3,1.1c-0.3,0-0.5,0-0.8,0c-6.6,0-7.9,3.8-7.5,9.9c0.4,7.4,0.1,14.8,0.1,24l35.8-32.2
		l-8.7-2.7c0-0.3,0.1-0.7,0.1-1H703.7 M563.1,551.1H586l-11.3-32.2L563.1,551.1 M1844.6,641.8l-9.9,106.6c-3.1-0.9-6.3-1.4-9-2.8
		c-1.2-0.6-2-3-2-4.6c-0.2-9.4-0.4-18.7,0.1-28.1c0.3-5.3-2-8.7-6.4-10.2c-9.3-3.2-18.7-7.1-28.4-8.4c-25.5-3.4-51.2-5.6-76.8-8.2
		c-0.2,0-0.5,0-0.7,0c-1.1,0-2.3,0.2-4.4,0.3l-3.3,147.6c1.8,0.2,3,0.3,4.1,0.3c0.2,0,0.5,0,0.7,0l90.3-5.8
		c15-1.4,11.4-0.5,15.2-13.3c0.3-0.9,0.3-1.9,0.5-2.8c1.8-9,1.8-9,12.3-9.2l-12.7,95.7c-10.1-2.2-10.2-2.3-9.7-11.8
		c0.4-7.1,0.2-14.2,0.9-21.2c0.4-4.4-1.4-6.5-5.3-7.2c-10.8-2.2-21.6-5.2-32.5-6.2c-20.7-1.9-41.5-2.6-63.7-3.9h0c0,0,0,0,0,0
		l3.4,169.2c1.3,0.8,1.6,1.2,1.9,1.2c1.4,0,2.7,0,4.1,0c32.1,0,64.1-1.2,95.5-8.9c22.7-5.5,23.1-6.2,28.4-28.7l3.7-16.8
		c2.1-9.6,2.8-10.1,13.1-10.8l-16.8,118.2l-10.3-1.7v-32.1c-50.9-2.1-101.6-4-152.3-4c-29.5,0-59.1,0.6-88.7,2.2
		c0.5-2.4,1.1-4.2,1.3-6.1c0.4-3.8,2.1-5.2,6.2-5.6c13.7-1.4,27.3-3.6,40.9-5.1c6.2-0.7,8.1-3.3,8.2-9.5l2.2-215
		c0.1-33-1.7-66.1-2.3-99.2c-0.1-6.1-1.9-8.8-8.2-9.4c-12.4-1.1-24.6-3.2-36.9-4.6c-10.4-1.2-10.5-1.1-10.9-11.4h36.5l140.5,0.4
		c18.9-0.1,37.8-1.1,56.7-1.8c9.1-0.3,9.2-0.5,10.9-9.2c0.7-3.4,1.6-6.8,1.6-10.2c0-4.8,2-7,6.7-7
		C1841,642.7,1842.7,642.2,1844.6,641.8 M790.6,663.6c0.3,0,0.6,0,0.9,0c34.8,0.1,69,4,101.2,18.4c50.4,22.5,85.4,58.6,98.1,113.4
		c16.8,72.5-8.6,174.6-107.1,222.4c-35.9,17.5-73.7,24.4-112.8,24.4c-7,0-14-0.2-21-0.6c-30.6-1.8-60.4-7.2-87.8-21.4
		c-44.6-23.1-78.2-57-91.8-106.1c-25.5-92.2,15-183.1,104.5-226.1C711.4,670.4,750.3,663.6,790.6,663.6 M800,1021.6
		c8.7-1.6,22-2.6,34.3-6.7c46.1-15.1,76.2-47.5,89.7-93.1c19.8-66.6,6.2-128.3-37.6-181.7c-30.2-36.9-68.5-56.8-113.7-56.8
		c-8.8,0-17.9,0.8-27.3,2.3c-52.6,8.6-91.7,36.7-111.2,87.2c-20,51.7-15.5,103.1,10.6,151.6C677,983.9,726.8,1017.6,800,1021.6
		 M1487.4,670.4c0.8,8.8,0.4,9.4-8.2,10.9l-31.1,5.2c-1.4,0.2-2.8,0.8-4.8,1.3l9.2,49.2l53.6,260.2c0.9,4.3,2.5,8.5,2.8,12.8
		c0.6,7.2,4.6,9.4,11,10.2c8.2,0.9,16.2,2.5,24.3,3.7c10.2,1.5,10.2,1.5,11.7,11.4H1388c0.1-1.2,0.3-2.9,0.3-4.6
		c-0.1-4.3,1.9-5.6,6.2-6l52.2-5.6l-53.2-290.3c-0.6-0.1-1.2-0.2-1.9-0.4l-130,309.6h-3l-118-311.7l-3.9,20.5L1110.8,894
		c-6.4,38.2-12,76.6-12.6,115.5c-0.1,8.5-0.2,8.7,8,10.1l30.6,4.8c8.7,1.5,9.1,2,8.8,11v0h-132.7c1.1-9,1.7-9.7,10.7-11.2l22.6-3.8
		c4.4-0.7,6.9-2.7,8-7.3l27.2-112.4l44.4-203c0.7-3.1,1.2-6.3,1.9-10.1l-30.8-4.4l-11.4-1.5c-9.7-1.5-9.7-1.5-11.3-11.2h150.5
		c0.4,8.5-0.2,9.2-8.6,10.8l-32.5,6.4l93.7,254.7c0.8,0,1.5,0.1,2.3,0.1c36.9-83.8,72.5-168.1,105.4-255.1l-24.2-5.2
		c-0.9-0.2-1.9-0.2-2.8-0.4c-9.7-1.6-9.7-1.6-10.9-11.4H1487.4 M516.5,670.4c-0.4,8.6-1.2,9.5-10.3,10.8l-38.6,5.4
		c-5,0.6-6.7,2.5-6.8,7.5l-2.6,180.6c-0.2,34.4,0.8,68.8,1.6,103.2c0.3,12,1.5,24,2.1,36c0.2,3.3,1.6,4.7,4.7,5.2l39.7,5.7
		c9.1,1.2,9.2,1,10.5,10.6H342.9c-0.1-9,0.4-9.4,9.6-10.6c12.3-1.6,24.5-3.9,36.9-5.2c5.9-0.6,7.2-3.3,7.3-8.4l2.1-97.4
		c0.5-20.9,0.3-41.7,0.3-63.9v0l-214.5,11.7v6.2l3.4,143.3c0.1,5.5,1.8,8.1,7.6,8.7c11.8,1.3,23.4,3.6,35.2,5
		c9.4,1.1,9.6,1.1,9.8,10.6H67c0.2-8.8,1.2-9.5,10.3-10.5c13.8-1.6,27.6-3.9,41.4-5.6c4.4-0.5,4.5-3.4,4.6-6.5l1.5-62.5l-1.2-248.9
		c-0.1-17.5,1.4-13.4-14.3-16c-12.2-2-24.6-3.3-36.9-4.7c-7.1-0.8-4-7-6.2-10.3h174.2c0.1,9.1-0.5,9.4-9.7,10.6
		c-12.7,1.6-25.3,3.8-38,5.6c-3.2,0.5-4.7,1.9-4.8,5.2l-3.4,140.4c0,0.2,0.2,0.3,0.6,1.2c38.4,0.1,76.9,0.5,115.5,0.5
		c32.6,0,65.2-0.3,97.9-1.5c0.2-2.5,0.4-4.2,0.3-5.9l-1.2-118.7c-0.1-5.3-0.8-10.7-1.1-16c-0.1-3.3-1.7-4.7-4.8-5.2l-38.5-5.6
		c-9.4-1.2-9.4-1-10.5-10.6H516.5 M929.9,9c-55,0-96.6,8.2-135,26.7c-47.3,22.7-83.2,58-104,102.1c-20.8,44.3-24.8,94.1-11.4,144.3
		c14.8,55.8,52.8,97.6,112.8,124.2c22.9,10.2,49.3,15.9,83.1,18.1c8.5,0.5,16.8,0.8,24.9,0.8c44,0,82.8-8,118.6-24.5
		c49.1-22.6,86.4-59.5,107.8-106.7c18.7-41.2,24.3-88.5,16-133.1c-5.8-30.6-18.1-57.3-36.7-79.4c-17.7-21.1-41.6-38.4-70.8-51.7
		C1005.5,16.2,970.4,9.3,930.9,9L929.9,9L929.9,9z M740.5,198.9c0.9-30.8,6.2-55.4,16.5-77.2c22.5-46.9,60.7-75.3,113.7-84.5
		c10.5-1.8,20.9-2.7,30.9-2.7c46.5,0,86.6,19.3,119.2,57.4c50,58.2,64.9,124.6,44.3,197.4c-14.7,52.2-49.2,87.9-99.8,103
		c-13.3,4-26.9,6-40.4,6c-24.6,0-49.7-6.6-74.6-19.6C790,347,753.8,295.2,742.8,224.8c-0.9-6.1-1.3-12.4-1.8-18.6
		C740.9,203.8,740.7,201.3,740.5,198.9L740.5,198.9z M1787.7,17h-2.2h-146.1h-2.4l0.4,2.4c0.1,0.3,0.1,0.7,0.2,1.1
		c0.2,1,0.4,2.1,0.6,3.3c0.6,6,3.8,8.9,10,9.2c4.5,0.2,8.9,0.9,13.5,1.6c1.1,0.2,2.2,0.4,3.3,0.5l28.3,4.4
		c-14,76.1-36.6,150.5-58.4,222.5c-6.1,20.2-12.4,41-18.4,61.5l-99.6-269.6c0.2-0.1,0.4-0.1,0.6-0.2c1.5-0.6,2.8-1.1,4-1.3
		c10.3-2,19.3-3.6,27.5-5l0.6-0.1c5.6-0.9,8.4-1.4,10.3-3.4c1.9-2.1,2.1-4.9,2.5-10.7l0-0.1V33c0-1.4-0.9-2.4-2.1-2.4h-1l-0.1,0.1
		H1401h-2.3l0.4,2.3c1.9,12.1,2.6,12.7,14.5,14.4l9.6,1.4l33,5.4c-22.9,72.8-51.3,144.2-78.8,213.3c-6.5,16.4-13.3,33.3-19.8,50
		L1281,39.7l39.4-5.8l0.3,0c10.6-1.6,11.2-2.2,13.1-12.8l0,0l0,0c0.2-1.4,0.2-1.6,0.2-1.8v-2h-2h-172.4h-2.4l0.5,2.4
		c0.1,0.3,0.1,0.5,0.2,0.8c0.2,0.8,0.4,1.6,0.4,2.4c-0.1,6.5,3,9.9,9.9,10.6c4.3,0.5,8.7,1.3,13,2.1c4,0.8,8.2,1.6,12.4,2.1
		c6.6,0.8,10.1,3.8,12.3,10.3c4.8,14.4,9.9,29.1,14.8,43.2c7.6,22,15.5,44.8,22.6,67.3l79.3,256.5c2.1,6.7,4.5,13.4,6.8,19.9
		c0.9,2.5,1.8,4.9,2.6,7.4l0.4,1.2l1.2,0.2l2.3,0.3l1.5,0.2l0.6-1.4l130.4-327.7l131,327.7l0.7,1.7l1.7-0.5c0.6-0.2,1.2-0.3,1.8-0.3
		l1.2-0.2l0.4-1.2l113.6-328.8c5.1-14.5,11-29,16.8-43c3.2-7.7,6.4-15.7,9.5-23.6c2.3-5.7,5.9-8.7,11.8-9.7
		c3.9-0.7,7.8-1.5,11.6-2.3c3.7-0.8,7.6-1.6,11.4-2.2c3.2-0.6,6.8-1.9,6.8-7.4c0-1.3,0.2-2.7,0.5-3.9c0.1-0.7,0.3-1.4,0.3-2.1
		L1787.7,17L1787.7,17z M625.5,17.1h-0.8h-1.8l0,0.4H435.2h-2.3l0.4,2.3c1.8,11.3,2.4,11.9,13.5,13.4l0.6,0.1
		c6.1,0.8,12.4,1.7,18.4,2.6c7,1,14.2,2.1,21.4,3c3.5,0.4,4.8,1.8,4.9,5.5c0.1,1.8,0.3,3.6,0.4,5.4c0.4,5.3,0.8,10.8,0.9,16.2
		l1.2,122.1c0,0.9-0.1,1.9-0.1,3c0,0.4-0.1,0.9-0.1,1.4c-29.4,1.1-60.7,1.6-101.1,1.6c-18.6,0-37.6-0.1-55.9-0.2
		c-18.3-0.1-37.2-0.2-55.8-0.2c-5.2,0-10.3,0-15.5,0c-0.1-0.4-0.2-0.7-0.2-0.9l3.6-149c0.1-3.5,1.3-4.7,5.2-5.3l43.1-5.9
		c2.5-0.3,7.7-1,8-7.6c0.1-1.4,0.4-2.9,0.7-4.1c0.1-0.5,0.2-1,0.3-1.5l0.5-2.4h-2.4H135.5h-2.2l0.2,2.2c1,11.4,1.7,12.2,13,13.6
		l0.3,0l43.2,5.7c3.9,0.5,5.2,1.9,5.2,5.7c0,5.9,0.3,11.8,0.5,17.6c0.2,5.1,0.4,10.4,0.5,15.6l1,177.8l-2.1,134.2
		c-0.1,4.2-0.4,5.5-3.9,5.9l-44.9,5.9c-10.2,1.1-12.7,3.8-12.4,13.6l0,2h2h188.9h2.2l-0.2-2.2c-1.2-11.4-1.9-12.2-12.5-13.5
		l-1.1-0.1c-12.4-1.5-24.7-3.5-36.2-5.4c-3.7-0.6-6-1-6.7-1.8c-0.7-0.8-0.8-3-0.9-6.5l-3.6-152.5l0-6.7l228.7-11.9l-0.3,104.3
		l-2.1,67.6c-0.1,3.4-0.2,5.6-0.9,6.3c-0.7,0.7-3.1,1.1-6.4,1.6c-2.8,0.4-5.6,0.8-8.4,1.2c-9.9,1.5-20.1,3-30.2,4.2
		c-5.2,0.7-8.5,1.2-10.5,3.3c-2.1,2.2-2.2,5.4-2.1,10.5l0,2h2h189h2.2l-0.2-2.2c-1.2-11.4-1.9-12.2-12.5-13.5l-0.9-0.1l-42.5-6.1
		c-2.9-0.4-3.6-1.2-3.8-3.8c-0.3-5.8-0.7-11.6-1.2-17.3c-0.7-9.1-1.4-18.5-1.5-27.8c-2.5-108.1-2.2-204.3,1-294.1
		c0.1-3.2,0.5-6.4,0.9-9.8c0.1-0.9,0.2-1.8,0.3-2.7l46.1-6.6c10.6-1.5,11.8-2.3,13.7-12h0.9l-0.5-2.4l0.3-1.6h-1.1L625.5,17.1
		L625.5,17.1z M1184.9,498l-4.4,6.6c-2.2,3.3-3.3,5-4.5,5.7c-1.2,0.7-3.1,0.7-6.9,0.7l-37.2,0.3c-1.1,0-2.2,0.2-3.2,0.4
		c-0.3,0.1-0.6,0.1-0.9,0.2l-1.7,0.3v1.7v1.2v1.7l1.7,0.3l9.8,1.7v66.3l-9.7,1.8l-1.6,0.3v1.7c0,0.6,0,1.2-0.1,1.7l-0.4,2.3h2.4
		h47.5l0.8,5.6l0.3,1.7h1.7c0.3,0,0.7,0,0.9-0.1c0.2,0,0.4,0,0.6,0h1.7l0.2-1.7l3.5-24.4l0.3-1.9l-1.9-0.4c-0.2,0-0.4-0.1-0.7-0.2
		c-0.3-0.1-0.6-0.2-0.9-0.2l-1.8-0.4l-0.5,1.7c-0.2,0.8-0.4,1.6-0.6,2.3c-0.4,1.5-0.8,2.9-1.4,4.2l0,0l0,0c-1,2.3-1.7,2.9-1.9,3.1
		c-5.9,1.1-12,2-18.4,2.9c-0.8,0.1-1.7,0.2-2.5,0.4v-32.2c0.5,0,1.1,0,1.6,0c1.1,0,2.3,0,3.4,0c1.3,0,2.3,0,3.3,0.1
		c3.6,0.2,5.9,0.4,6.7,1.1c0.8,0.7,1.1,2.8,1.6,6.1c0.1,1.3,1.2,1.8,1.8,2c0.2,0.1,0.5,0.2,0.8,0.4l2.5,1.3l0.3-2.8l2.4-19.5
		l0.9-7.6l-4.5,6.1c-2.7,3.6-8,5.7-14.5,5.7c-2,0-4-0.2-6.2-0.5v-27l13.8,1.5c2.6,0.3,5.3,0.8,6.4,2.3c0.7,0.9,0.8,2.4,0.4,4.3
		l0,0.1l0,0.1c-0.2,1.1,0.3,2,0.7,2.7c0.1,0.2,0.2,0.4,0.3,0.6l0.5,1.3h1.4c0.3,0,0.6,0,0.8-0.1c0.1,0,0.3,0,0.4,0h1.8l0.2-1.8
		l1.4-14.9l5.2,1.8c9.5,3.3,14.2,11,19.1,19c2.4,3.9,4.9,7.9,7.9,11.4c7,8.1,6.5,17.3,6,27c-0.2,3.7-0.4,7.5-0.2,11.3l-8.6,1.7
		l-2,0.4l0.5,2c0,0.1,0,0.2,0.1,0.4c0,0.2,0.1,0.5,0.1,0.8l0.4,1.5h1.6h33.8h4.4l-2.9-3.3c-1.7-1.9-3.9-3-6.3-3
		c-3.2,0-3.7-0.7-4.2-5.3c-2-18.8,2.1-33.1,13.2-44.9c2-2.2,3.7-4.7,5.3-7.1c3.6-5.4,7.1-10.6,14.1-12l-0.4-4c-8.5,0-17.3,0-26,0.2
		l-1.4,0l-0.4,1.3c-0.1,0.3-0.2,0.7-0.2,0.9c0,0.1,0,0.2-0.1,0.3l-0.5,1.9l1.9,0.5l6.7,1.9l-16.6,27.4l-17.9-27.6l7.1-2l2-0.6
		l-0.7-2l-0.3-0.9l-0.5-1.4h-1.4h-33h-5.7l0.6-6.3L1184.9,498L1184.9,498z M1356.1,502.2l-2.4,0.3c-2.8,0.4-3.8,2-3.8,3.3
		c0,1.9-0.3,3.2-1.1,4c-1.3,1.3-4.2,1.3-7,1.3l-39.5,0.1c-1,0-2,0.1-3,0.2c-0.6,0.1-1.2,0.1-1.7,0.2l-1.9,0.1v1.9c0,0.2,0,0.3,0,0.6
		c0,0.3-0.1,0.6-0.1,0.9v1.7l1.6,0.3l10.1,1.9c0,0,0,0.1,0,0.1c0.2,0.8,0.3,1.5,0.3,2.2l0.1,55.6c0,3.8-0.1,6.2-0.9,7
		c-0.7,0.9-3,1.3-6.8,2l-0.2,0c-1,0.2-1.9,0.6-2.7,1c-0.2,0.1-0.4,0.2-0.6,0.3l-1.9,0.8l0.9,1.7c0,0.2,0.1,0.5,0.3,0.8l0.6,1.1h1.2
		h37.1h6.9l-5.9-3.7c-2.3-1.4-4.5-2-6.8-2.5c-0.7-0.2-1.5-0.3-2.2-0.5c-0.6-0.2-1.5-0.9-1.9-1.3l-0.1-29.3c0.5,0,1,0.1,1.5,0.1
		c3.1,0.2,6,0.5,9.1,0.5c3.7,0.1,6,0.8,7.1,2.1c0.9,1.1,1.1,2.8,0.8,5.2c-0.2,1.2,0.5,2.1,0.8,2.6c0.1,0.1,0.2,0.3,0.2,0.3l0.6,1.1
		l1.2,0c0.6,0,1-0.1,1.4-0.2l0.2,0l1.4-0.4l0.1-1.5l1.3-24.1l0.4-7.2l0.1,0c0.2,0,0.3-0.1,0.5-0.1c0.3,0,0.6-0.1,0.9-0.2l1.4-0.4
		l0.1-1.5l1.7-26.2L1356.1,502.2L1356.1,502.2z M1325.3,547v-28.6l16.6,2.5c4.9,0.7,6.6,2.6,6.1,6.7c-0.2,1.3,0.3,2.4,0.7,3.2
		c0.1,0.3,0.2,0.6,0.3,0.8l0.5,1.7l1.4-0.3l-3.8,6c-0.8,1.3-1.5,2.6-2.1,3.8c-0.5,1-1.2,2.3-1.6,2.7c-4.7,0.7-9.5,1-14.2,1.3
		C1327.9,546.8,1326.6,546.9,1325.3,547L1325.3,547z M763.6,503.7l-0.2,2.7c-0.3,4.2-2.4,4.7-7.4,4.7l-32.7,0.2h-10.4h-2v0.8h-7.2
		h-27.4h-2v2c0,0.1,0,0.1,0,0.2c0,0.2-0.1,0.5-0.1,0.8v1.5l1.4,0.4l5.3,1.7l-29.8,26.8c0-1.2,0-2.5,0-3.6c0.1-5.8,0.1-10.8-0.2-16
		c-0.2-3.4,0.2-5.4,1.2-6.5c0.8-0.9,2.2-1.3,4.4-1.3c0.2,0,0.4,0,0.7,0l0,0h0c1.2,0,2.2-0.5,3.1-0.9c0.3-0.1,0.6-0.3,0.9-0.4
		l1.8-0.7l-0.6-1.8c0,0,0-0.1,0-0.1c0-0.2-0.1-0.5-0.2-0.8l-0.5-1.4h-1.4h-36.2h-5.8l4.6,3.6c2.4,1.9,5.2,2.9,8.4,3
		c2.4,0.1,3,0.5,3,3.3l-0.1,54.5c-0.1,4.2-0.3,7.1-1.2,8.5c-0.6,0.9-1.8,1.5-5.5,1.5c-1,0-2.1,0-3.5-0.1c-0.4,0-0.8,0-1.4,0
		c-0.3,0-0.6,0-0.9,0c-0.3,0-0.6,0-0.9,0c-3.7,0-5.8-0.5-6.9-3.3l-25-63.7l6.9-2.2l1.9-0.6l-0.6-1.9c-0.1-0.3-0.2-0.5-0.3-0.7
		c0-0.1-0.1-0.1-0.1-0.2l-0.5-1.4l-1.4,0H563h-1.6l-0.4,1.5c-0.1,0.3-0.1,0.6-0.1,0.8c0,0.1,0,0.3-0.1,0.4l-0.5,1.9l1.9,0.5l6.6,1.6
		l-25.6,64.4c-0.7,1.7-1.8,2.3-4.1,2.3c-0.8,0-1.7-0.1-2.6-0.1c-0.9-0.1-1.9-0.2-2.8-0.2c-0.1,0-0.2,0-0.4,0c-2,0-3.1-0.6-3.8-4
		l-9.4-45.4l-3.2-16.9l7.5-2.1l1.9-0.5l-0.5-1.9c-0.1-0.2-0.1-0.4-0.2-0.6c0-0.2-0.1-0.3-0.1-0.5l-0.4-1.5h-1.6h-29.1h-2v2
		c0,0.1-0.1,0.2-0.1,0.3l-0.6,1.9l1.8,0.7c1.1,0.4,2.2,0.8,3.3,1.3c0.9,0.3,1.7,0.7,2.7,1l-19.8,47.1L462.2,519l6.3-1.6l1.9-0.5
		l-0.5-1.9c-0.1-0.2-0.1-0.4-0.2-0.6c0-0.2-0.1-0.3-0.1-0.5l-0.4-1.5h-1.6H437h-2v2c0,0.1,0,0.2,0,0.4c0,0.2-0.1,0.5-0.1,0.8v1.6
		l1.6,0.3l8.6,1.7c0,0,0,0,0,0.1c-0.1,0.6-0.1,1.1-0.2,1.6l-12.9,57c-1.2,5.8-2.3,8.3-7,8.3l-0.2,0c-1.4,0-2.1,1.2-2.5,1.9
		c-0.1,0.1-0.2,0.3-0.2,0.4l-2.6,3.2l4.1,0h27.6h1.6l0.3-1.6c0.1-0.3,0.1-0.6,0.1-0.8c0-0.2,0-0.3,0.1-0.4l0.5-2l-2-0.4l-9.2-2
		l8.3-52l22.3,58.2l0.5,1.3h1.4c0.2,0,0.3,0,0.6,0c0.3,0,0.6,0.1,0.9,0.1h1.3l0.5-1.2l24.8-58.6l9.7,52.4l-10,1.9l-2.2,0.4l0.6,2.1
		l0.3,1l0.4,1.4h1.5H563h2v-2c0,0,0-0.1,0-0.2c0-0.2,0.1-0.5,0.1-0.9v-1.6l-1.6-0.3l-7.6-1.7c0.7-2.5,1.3-5,2-7.4
		c1.6-6.1,3.2-11.9,4.9-17.8c0.2-0.7,1.4-1.7,1.9-1.8c6.8-0.6,13.3-1,19.3-1.1c0.6,0,1.7,0.6,2,1l9.8,27l-8.9,1.8l-1.6,0.3v1.6
		c0,0.6,0.1,1,0.2,1.4l0,0.2l0.4,1.5h1.6h74.3h5.9l-4.6-3.6c-2.4-1.8-5-2.8-8-2.9c-1.5,0-2.6-0.3-3.1-0.9c-0.5-0.5-0.7-1.6-0.6-3.1
		c0.2-6.2,0.3-13.4-0.3-20.4c-0.4-4.4,1-6.9,5.5-9.4c0.1,0.1,0.2,0.2,0.3,0.4c1,1.4,2.1,2.9,3.5,4.2l37.9,35
		c1.6,1.4,3.6,2.2,5.5,2.9c0.8,0.3,1.6,0.6,2.2,0.9l1.8,0.8l0.9-1.7c0.2-0.5,0.5-1,0.7-1.6l0.4-1.1l-0.7-0.9L669,541
		c3.8-2.9,7.3-5.9,10.8-8.9c7.7-6.7,15-13.1,24.6-16.1l6.6-2.1c0,0.3-0.1,0.6-0.1,1v1.7l1.6,0.3l9.8,1.8V585
		c-3.3,0.6-6.5,1.3-9.6,1.8l-2,0.3l0.3,2c0,0.2,0.1,0.5,0.1,0.7c0,0.3,0.1,0.7,0.1,1.1l0.3,1.7h1.7h47.3l1.1,6l0.4,2.1l2.1-0.5
		c0.1,0,0.3,0,0.4-0.1c0.3,0,0.6-0.1,0.9-0.1l1.3-0.3l0.2-1.3l3.5-24.4l0.3-1.9l-1.9-0.4c-0.2,0-0.4-0.1-0.6-0.2
		c-0.3-0.1-0.6-0.2-0.9-0.2l-1.8-0.4l-0.5,1.7c-0.2,0.7-0.4,1.4-0.6,2.1c-0.4,1.5-0.8,2.9-1.4,4.1c-1.7,3-2.4,3.6-2.7,3.7
		c-5.2,1.1-10.4,1.7-15.9,2.4c-1.4,0.2-2.8,0.4-4.2,0.5v-32.2c0.4,0,0.8,0,1.2,0c1,0,1.9,0,2.9,0c1.1,0,2,0,2.8,0
		c4.1,0.2,6.5,0.3,7.5,1.1c0.9,0.7,1.5,2.8,2.4,6.5c0.1,0.7,0.6,1.5,2.1,1.7c0.2,0,0.5,0.1,0.7,0.1l2.3,0.6l0.3-2.3l2.3-19.3
		l0.9-7.2l-4.4,5.7c-2.9,3.8-7.7,5.6-14.5,5.6c-1.9,0-4-0.1-6.3-0.4v-27c5.8,0.6,10.8,1.2,15.9,1.9c2.4,0.3,3.8,0.9,4.5,1.9
		c0.6,0.8,0.7,2,0.4,3.6c-0.3,1.3,0.3,2.5,0.7,3.4c0.1,0.3,0.3,0.6,0.4,0.8l0.6,1.7l1.7-0.4c0.1,0,0.2,0,0.3-0.1
		c0.2,0,0.5-0.1,0.8-0.1l1.4-0.3l0.1-1.4l1.9-21.8l0.1-1.5l-1.4-0.6c-0.2-0.1-0.4-0.2-0.6-0.3c-0.3-0.1-0.6-0.3-0.9-0.4L763.6,503.7
		L763.6,503.7z M565.9,549.1l8.7-24.2l8.5,24.2H565.9L565.9,549.1z M218.1,504.2l-1.8,0.3c-0.4,0.1-0.8,0.1-1.5,0.1h-1.9l-0.1,1.9
		l-1.5,26.1l-0.1,1.8l1.8,0.3l1.9,0.3l1.9,0.3l0.4-1.8c0.2-0.8,0.3-1.5,0.4-2.3c0.2-1.5,0.5-3,1-4.2l0,0l0,0c0.9-2,2.1-3.5,2.6-3.6
		c6.1-1.4,12.6-2.4,18.8-3.3c1.2-0.2,2.5-0.4,3.7-0.6c0,0.1,0.1,0.2,0.1,0.4c0.1,0.5,0.2,0.9,0.2,1.1l0.1,61.3
		c0,2.3-0.5,2.8-2.8,2.9c-2.5,0.1-4.9,0.5-7.2,0.9c-1,0.2-2,0.3-2.9,0.5l-2.1,0.3l0.4,2.1l0.3,1.4l0.3,1.6h1.6h41.7h7l-6-3.7
		c-3.2-2-6.6-3-10-3c-2.9-0.1-3.5-0.7-3.5-3.9l-0.1-51.6c0-2.1,0.1-4.3,0.3-6.8c0.1-1.1,0.1-2.2,0.2-3.3c1.9,0.3,3.7,0.6,5.6,0.8
		c5.9,0.9,11.4,1.7,16.9,2.9c0.5,0.3,1.5,1.8,1.8,3.2c0.3,1.5,0.2,3.1,0.1,4.9c0,0.8-0.1,1.7-0.1,2.5v1.7l1.7,0.2
		c0.8,0.1,1.7,0.1,2.5,0.1h1.8l0.2-1.8l3.4-27.2l0.3-2.7l-2.6,0.4c-4.1,0.7-4.4,3-4.4,3.7c-0.1,2.5-0.7,3.3-4.9,3.3
		c-3.2,0-6.4,0.2-9.6,0.4c-3.1,0.2-6.2,0.3-9.3,0.3h-44.9l-1.5-6.5L218.1,504.2L218.1,504.2z M975.6,509l-0.3,0
		c-10.9,1.1-23.6,3.2-34.8,11.3c-10.2,7.4-16.3,18.7-16.9,31c-0.5,12,4.3,23.4,13.3,31.3c8,7,19.4,10.9,32.2,10.9
		c18.4,0,35.1-7.8,43.6-20.4c7.2-10.6,9.5-23.2,6.3-34.6c-3-10.5-10.2-18.8-20.3-23.4c-5-2.3-10.6-3.4-15.9-4.6
		c-2.2-0.5-4.6-1-6.8-1.5L975.6,509L975.6,509z M974.7,585c-6.5,0-13.2-2.5-19.8-7.5c-9.8-7.4-14.7-17.3-14.7-29.4
		c0-17.4,12.3-29.5,29.8-29.5c17.2,0.1,31.6,14.9,32.6,33.8c0.8,13.6-4.3,23.5-15,29.2C983.4,583.9,979,585,974.7,585L974.7,585z
		 M345.9,509.7L345.9,509.7c-11.9,0-23.2,3.9-33.7,11.6c-13.5,9.9-18.7,24.1-15.1,41.1c3.2,14.6,12.8,24.3,28.6,28.8
		c3.7,1,7.5,1.5,11.1,2c1.8,0.2,3.6,0.5,5.4,0.8l0.2,0l0.2,0c13.5-0.6,25.2-4.6,33.8-11.4c11.7-9.4,17.7-23.5,16.1-37.8
		c-1.5-12.8-8.8-23.3-20.3-28.8C363.5,511.8,354.7,509.7,345.9,509.7L345.9,509.7z M347.5,584.9c-4.7,0-9.4-1.2-14-3.4
		c-12.9-6.5-19.8-17.1-20.6-31.6c-0.7-13.6,5.7-24.2,17.6-28.9c3.9-1.6,7.9-2.4,11.9-2.4c8.7,0,16.9,3.7,23,10.3
		c6.3,6.8,9.9,16.5,9.9,26.4C375.3,572.2,363.3,584.9,347.5,584.9L347.5,584.9z M1499.3,509.8l-0.2,0c-14.7,0.5-25.8,4-35.1,11.1
		c-10.8,8.1-16.8,20.9-16.2,34.2c0.6,13,7.2,24.4,18.3,31.3c7.5,4.7,16.9,7.2,27.2,7.2c16.1,0,31.1-6.1,40.3-16.3
		c9.6-10.7,13.3-26.9,9.2-40.2c-3.9-12.6-14.1-21.6-28.9-25.3c-3.3-0.9-6.9-1.2-10.3-1.6c-1.3-0.1-2.7-0.3-4-0.4L1499.3,509.8
		L1499.3,509.8z M1498.8,585.2c-6.7,0-13.4-2.6-20.1-7.9c-9.5-7.4-14.3-17.2-14.3-29.1c0-17.4,12.3-29.6,29.8-29.6
		c17.3,0,31.7,14.9,32.7,33.9c0.8,13.9-4.4,23.8-15.5,29.5C1507.3,584.1,1503,585.2,1498.8,585.2L1498.8,585.2z M1043.2,510.3v2
		V510.3L1043.2,510.3c-1.4,0-2.9,0.1-4.5,0.3c-2.6,0.4-5.1,0.5-7.9,0.6c-1.2,0-2.4,0.1-3.5,0.1l-1.9,0.1v1.9v1.9v1.8l1.8,0.2
		l5.3,0.5l4.9,0.7c-0.1,3.7-0.3,7.4-0.5,11c-0.6,15.4-1.3,31.2-1.5,46.8c-0.2,7.1-0.9,10-6.9,10c-0.1,0-0.3,0-0.4,0
		c-1.2,0-1.9,0.9-2.4,1.5c-0.1,0.2-0.3,0.4-0.4,0.6l-2.8,3.3h4.3h31.8h6.6l-5.5-3.7c-0.5-0.3-0.8-0.6-1.1-0.8c-0.7-0.5-1.3-0.9-2-1
		l-0.3-0.1c-4.5-0.9-7.3-1.5-8.3-2.6c-1-1.1-1.2-3.9-1.3-8.3l-0.1-44.8l56.1,65.5l2,2.3l1.3-2.8c1.6-3.3,1.7-5.6,1.8-7.7l2.3-62.5
		c0.1-5.7,1.2-7.3,5.2-7.3c1.2,0,2.1-0.7,3-1.4c0.3-0.3,0.6-0.5,1-0.7l5.5-3.7h-6.6h-29.6h-5.1l3.7,3.5c1.8,1.7,3.8,2.5,6.1,2.5
		c3.9,0,5.3,1.5,5.4,5.6l1.1,29.8v14.8l-2.1-2.5c-3.7-4.5-7.5-9-11.1-13.3c-8.9-10.6-18.1-21.5-26.4-32.8
		C1055.4,513.2,1050.2,510.3,1043.2,510.3L1043.2,510.3z M1367.8,511.6L1367.8,511.6c-1,0-1.7,0.6-2.3,1.2c-0.2,0.2-0.5,0.5-0.9,0.9
		l-3,2.7l4,0.7l10.9,1.9l-0.2,64.5c-0.4,0.4-1.4,1.1-2.3,1.4c-1.6,0.6-3.3,0.9-5.1,1.2c-0.9,0.2-1.9,0.3-2.8,0.5l-2.2,0.5l0.7,2.1
		c0,0.1,0.1,0.3,0.1,0.4c0.1,0.2,0.1,0.4,0.2,0.6l0.5,1.4h1.4h36.6h1.6l0.4-1.5c0.1-0.3,0.1-0.6,0.1-0.8c0-0.1,0-0.3,0.1-0.4
		l0.5-2.1l-2.1-0.4l-10.3-1.9v-28c1.1-0.3,2-0.4,3-0.4c3.3,0,6.2,1.7,9.6,5.6c7.9,9.2,16.8,17.9,25.3,26.3l3,3
		c1.7,1.6,3.9,2.4,6,3.2c0.8,0.3,1.6,0.6,2.4,1l2.2,1l0.6-2.3c0-0.1,0.1-0.2,0.1-0.4c0.1-0.2,0.2-0.5,0.3-0.8l0.2-0.9l-0.5-0.7
		l-27.7-40.2c1.1-1.2,2.2-2.3,3.2-3.4c3.1-3.2,6-6.2,8.3-9.6c3-4.6,3.8-9.4,2.4-13.7c-1.5-4.4-5.3-7.9-10.7-9.8
		c-2.8-1.1-5.1-1.6-7.2-1.7L1367.8,511.6L1367.8,511.6L1367.8,511.6z M1393.9,549.2v-30.9c1.1,0.2,2.3,0.4,3.3,0.6
		c3.4,0.6,6.6,1.1,9.5,2.2c5,1.9,8.2,5.6,8.9,10c0.7,4.6-1.3,9.4-5.7,12.9C1405.9,547.4,1400.9,549,1393.9,549.2L1393.9,549.2z
		 M906.1,511.9h-1.6h-29.1H874l-0.5,1.4l-0.3,0.9l-0.6,1.8l1.8,0.7l6.1,2.3l-19.8,47.1l-17.5-47.1l6.3-2.1l1.9-0.6l-0.6-1.9
		c-0.1-0.4-0.3-0.6-0.4-0.8c0,0,0,0,0-0.1l-0.4-1.3h-1.4h-30.6h-2v2c0,0.1,0,0.2,0,0.4c0,0.2-0.1,0.5-0.1,0.8v1.6l1.6,0.3l8.7,1.8
		c0,0.1,0,0.3-0.1,0.4c-0.1,0.8-0.2,1.6-0.3,2.3l-12.3,54.8l-0.1,0.4c-1.4,6-2.4,9.4-8,9.4c-1.6,0-2,1.4-2.3,2.1
		c-0.1,0.2-0.2,0.5-0.2,0.6l-1.4,2.9h3.2H832h1.6l0.4-1.5c0.1-0.3,0.2-0.6,0.3-0.9l0.7-2l-2-0.6l-9.3-2.6l8.2-51.8l22.4,58.3
		l0.6,1.6l1.6-0.3l1.6-0.3l1.1-0.2l0.4-1l24.7-58.5l9.7,52.5l-10,1.8l-1.6,0.3v1.7c0,0.6,0.1,1,0.2,1.4l0,0.2l0.4,1.5h1.6h34.5h3.8
		l-2.2-3.1c-0.5-0.7-2-2.9-4.4-2.9H916l-0.1,0c-0.2,0-0.4,0-0.6,0c-3.3,0-4.4-1.4-5.4-6.5l-7.5-35.3l-4.7-24.8l7.5-2.1l1.9-0.5
		l-0.5-1.9c-0.1-0.2-0.1-0.4-0.2-0.6c0-0.2-0.1-0.3-0.1-0.5L906.1,511.9L906.1,511.9z M1647.1,512h-1.6h-29.1h-1.6l-0.4,1.5
		c0,0.2-0.1,0.3-0.1,0.5c-0.1,0.2-0.1,0.4-0.2,0.6l-0.5,1.8l1.8,0.6l6,1.9l-19.8,47.3l-17.6-47.3l6.3-1.6l1.9-0.5l-0.5-1.9
		c-0.1-0.2-0.1-0.4-0.2-0.6c0-0.2-0.1-0.3-0.1-0.5l-0.4-1.5h-1.6h-30.7h-2v2c0,0.1,0,0.2,0,0.4c0,0.2-0.1,0.5-0.1,0.8v1.6l1.6,0.3
		l8.6,1.8c-0.1,0.8-0.1,1.5-0.3,2.2l-12.8,56.4l0,0.1c-1.3,5.5-2.1,8.3-6.8,8.3c-0.1,0-0.2,0-0.3,0l0,0h0c-1.3,0-2,1-2.5,1.7
		c-0.1,0.2-0.2,0.4-0.3,0.5l-2.7,3.3h4.3h27.7h1.6l0.3-1.6c0.1-0.3,0.1-0.6,0.1-0.8c0-0.2,0-0.3,0.1-0.4l0.5-2l-2-0.4l-9.2-2l8.2-52
		l22.4,58.4l0.6,1.6l1.6-0.3l1.6-0.3l1.1-0.2l0.4-1l24.6-58.5l9.8,52.6l-10,1.9l-1.6,0.3v1.7c0,0.6,0.1,1,0.2,1.4l0,0.2l0.4,1.5h1.6
		h34.5h3.8l-2.2-3.1c-1.3-1.8-2.9-2.9-4.4-2.9h-0.1l-0.1,0c-0.2,0-0.4,0-0.6,0c-3.5,0-4.5-1.7-5.4-6.5l-7.5-35.3l-4.7-24.8l7.5-2.1
		l1.9-0.5l-0.5-1.9c-0.1-0.2-0.1-0.4-0.2-0.6c0-0.2-0.1-0.3-0.1-0.5L1647.1,512L1647.1,512z M1846.8,639.3l-2.7,0.6
		c-0.4,0.1-0.9,0.2-1.3,0.3c-1.3,0.3-2.5,0.6-3.6,0.6c-5.8,0-8.7,3-8.7,9c0,2.6-0.6,5.2-1.2,7.9c-0.1,0.6-0.3,1.2-0.4,1.9
		c-0.7,3.6-1.2,5.9-2,6.6c-0.9,0.7-3.2,0.8-7,1c-4.7,0.2-9.5,0.4-14.2,0.6c-13.9,0.6-28.3,1.2-42.5,1.2l-140.5-0.4h-36.5h-2.1
		l0.1,2.1c0.2,5.4,0.3,8.4,2.2,10.4c1.8,2,4.6,2.3,10.1,2.9l0.3,0c5,0.6,10.1,1.3,15.1,2c7.1,1,14.5,2,21.9,2.7c5,0.5,6.3,2,6.4,7.4
		c0.2,12.8,0.7,25.9,1.1,38.5c0.6,19.9,1.3,40.5,1.2,60.7l-2.2,215c-0.1,5.4-1.4,7-6.4,7.5c-6.3,0.7-12.7,1.6-18.9,2.4
		c-7.2,1-14.6,2-22,2.7c-5.1,0.5-7.5,2.7-8,7.4c-0.1,1.1-0.4,2.1-0.7,3.4c-0.2,0.8-0.4,1.6-0.6,2.5l-0.5,2.5l2.6-0.1
		c27.9-1.5,56.9-2.2,88.6-2.2c51.9,0,104.7,2,150.3,3.9v30.2v1.7l1.7,0.3l10.3,1.7l2,0.3l0.3-2l16.8-118.2l0.3-2.4l-2.5,0.2
		c-11.2,0.8-12.6,1.9-14.9,12.4l-3.7,16.8c-5.2,21.9-5.2,21.9-26.9,27.2c-31.8,7.8-64.5,8.9-95,8.9c-1.2,0-2.4,0-3.6,0
		c-0.1-0.1-0.2-0.2-0.4-0.3l-3.3-166c6,0.3,12,0.7,17.8,0.9c15.1,0.8,29.3,1.5,43.7,2.8c7.7,0.7,15.5,2.5,23.1,4.2
		c3,0.7,6.1,1.4,9.2,2c3.1,0.6,4,1.8,3.7,5.1c-0.4,4.3-0.5,8.6-0.6,12.8c-0.1,2.8-0.1,5.6-0.3,8.4c-0.6,10.5,0.2,11.5,11.3,13.9
		l2.1,0.5l0.3-2.2l12.7-95.7l0.3-2.3l-2.3,0c-11.4,0.2-12.2,0.8-14.2,10.8c-0.1,0.4-0.1,0.8-0.2,1.3c-0.1,0.5-0.1,0.9-0.2,1.3l0,0
		l0,0c-0.7,2.5-1.2,4.4-1.6,6c-0.7,3-1,4-1.7,4.4c-1.1,0.7-3.8,0.9-8.3,1.3l-1.8,0.2l-90.3,5.8c-0.2,0-0.4,0-0.6,0
		c-0.6,0-1.2-0.1-2-0.1l3.2-144c1-0.1,1.8-0.2,2.4-0.2c0.2,0,0.4,0,0.6,0c6.4,0.7,12.9,1.3,19.3,1.9c18.9,1.8,38.3,3.7,57.4,6.3
		c7.6,1,15.2,3.7,22.5,6.4c1.8,0.6,3.7,1.3,5.5,2c3.6,1.2,5.3,3.9,5.1,8.2c-0.5,9.4-0.3,19-0.1,28.2l0,0.1c0,2,1,5.3,3.1,6.3
		c2.1,1.1,4.4,1.7,6.7,2.2c0.9,0.2,1.8,0.4,2.7,0.7l2.3,0.7l0.2-2.4l9.9-106.6L1846.8,639.3L1846.8,639.3z M790.6,661.6
		c-44,0-82.2,8-116.7,24.6c-44.1,21.2-77.4,54.2-96.3,95.6c-9.2,20.1-14.7,41.7-16.3,64c-1.7,22.7,0.7,45.9,7.1,68.9
		c6.6,23.9,18.3,45.3,34.7,63.6c15.1,16.9,34.7,31.6,58.1,43.7c24.4,12.6,52.5,19.5,88.6,21.6c7.2,0.4,14.3,0.7,21.1,0.7
		c42.4,0,79.6-8.1,113.6-24.6c45.5-22.1,79.3-57.7,97.8-103c15.7-38.3,19.4-82.7,10.4-121.7c-6.2-26.9-18.1-50.3-35.4-69.7
		c-16.2-18.3-37.7-33.4-63.9-45.1c-28.5-12.7-59.9-18.5-102-18.6L790.6,661.6L790.6,661.6z M799.9,1019.6
		c-70.3-3.9-120.4-35.4-153.3-96.1c-26.4-49.1-30-99.6-10.5-149.9c18.6-48.2,55.5-77.1,109.7-85.9c9.2-1.5,18.2-2.3,26.9-2.3
		c44,0,81.7,18.9,112.2,56.1c44.2,53.9,56.7,114.4,37.2,179.9c-13.5,45.5-44,77.2-88.4,91.8c-8.7,2.9-18.1,4.3-25.7,5.3
		C805.1,1018.8,802.3,1019.2,799.9,1019.6L799.9,1019.6z M1489.2,668.4h-1.8h-140.3h-2.3l0.3,2.2c1.3,10.6,2,11.4,12.5,13.1
		c0.5,0.1,1.1,0.2,1.6,0.2c0.4,0,0.8,0.1,1.2,0.2l21.9,4.7c-28.4,74.9-61.4,154.8-103.8,251.1l-92.2-250.8l30.2-5.9
		c9.4-1.8,10.7-3.4,10.2-12.9l-0.1-1.9h-1.9h-150.5h-2.4l0.4,2.3c1.8,10.6,2.4,11.2,13,12.9l11.4,1.5l28.7,4.1
		c-0.1,0.4-0.1,0.8-0.2,1.3c-0.4,2.4-0.8,4.6-1.3,6.7l-44.4,203l-27.2,112.4c-0.9,3.6-2.6,5.2-6.4,5.8l-22.6,3.8
		c-9.9,1.6-11.1,3-12.4,12.9l-0.3,2.2h2.3h132.7h1.9l0.1-1.9c0.3-10-0.7-11.4-10.5-13l-30.6-4.8c-2.8-0.5-5.3-0.9-5.8-1.6
		c-0.6-0.7-0.5-3-0.5-6.2l0-0.3c0.6-36.7,5.4-72.6,12.6-115.2l25.9-147.2l2.6-13.5l115.5,305.1l0.5,1.3h1.4h3h1.3l0.5-1.2
		l128.7-306.4l52.2,285l-50.1,5.4c-4,0.4-8.1,1.6-8,8c0,1.2-0.1,2.5-0.2,3.5c0,0.3-0.1,0.6-0.1,0.8l-0.2,2.2h2.2h167.9h2.3l-0.3-2.3
		c-1.6-10.8-2.3-11.4-13.4-13.1c-2.9-0.4-5.9-0.9-8.7-1.4c-5.1-0.8-10.3-1.7-15.6-2.3c-6.4-0.8-8.8-2.9-9.2-8.4
		c-0.2-2.9-1-5.8-1.7-8.6c-0.4-1.5-0.8-3-1.1-4.4l-53.6-260.2l-8.9-47.4c0.2-0.1,0.4-0.1,0.5-0.2c0.9-0.3,1.6-0.5,2.3-0.6l31.1-5.2
		c9.7-1.7,10.8-3.1,9.9-13.1L1489.2,668.4L1489.2,668.4z M518.6,668.4h-2.1H342.7h-2.2l0.3,2.2c1.2,10.3,1.8,11,11.7,12.3l0.6,0.1
		l38.5,5.6c2.3,0.4,3,1.1,3.1,3.3l0,0l0,0c0.1,2.1,0.3,4.3,0.5,6.4c0.3,3.1,0.5,6.4,0.6,9.5l1.2,118.7l0,0l0,0
		c0.1,1.1,0,2.3-0.1,3.8c-28,1-58.6,1.5-96,1.5c-20.5,0-41.3-0.1-61.5-0.3c-17.3-0.1-35.1-0.2-52.6-0.3l3.4-139.6
		c0.1-2.2,0.7-2.9,3.1-3.3c5.1-0.7,10.3-1.5,15.3-2.3c7.4-1.1,15.1-2.3,22.6-3.3c4.6-0.6,7.7-1,9.5-2.9c1.9-2,2-5,1.9-9.7l0-2h-2
		H66.2h-3.7l2.1,3.1c0.5,0.7,0.6,1.9,0.7,3.1c0.3,2.9,0.7,7.3,7,8c1.6,0.2,3.3,0.4,4.9,0.6c10.5,1.2,21.3,2.4,31.9,4.1
		c2.9,0.5,5.3,0.7,7.1,0.9c2.6,0.3,4.5,0.5,4.9,1.1c0.6,0.9,0.6,3.6,0.6,7.9c0,1.2,0,2.6,0,4.1l1.2,248.9l-1.5,62.5
		c-0.1,3.3-0.3,4.3-2.8,4.6c-6.4,0.8-12.9,1.7-19.2,2.6c-7.3,1-14.8,2.1-22.2,3c-9.7,1.1-11.8,2.3-12.1,12.4l0,2h2h173.6h2l0-2
		c-0.1-4.9-0.2-7.8-2-9.8c-1.7-1.9-4.3-2.2-9.5-2.8l-0.1,0c-5.6-0.7-11.2-1.5-16.6-2.4c-6.1-0.9-12.3-1.9-18.6-2.6
		c-4.5-0.5-5.7-1.9-5.8-6.7l-3.4-143.3l0-4.3L397.1,852c0,4.3,0,8.5,0,12.7c0,16.9,0.1,32.9-0.3,49.1l-2.1,97.4
		c-0.1,4.4-0.9,6-5.5,6.5c-7.4,0.8-14.8,1.9-21.9,3c-4.9,0.8-10,1.5-15,2.2c-4.9,0.6-7.7,1.1-9.5,3c-1.8,2-1.9,4.9-1.8,9.6l0,2h2
		h173.9h2.3l-0.3-2.3c-1.4-10.2-2.1-11-11.6-12.2l-0.6-0.1l-39.7-5.7c-2.2-0.4-2.8-1-3-3.3c-0.2-4.8-0.6-9.7-0.9-14.4
		c-0.5-7.1-1-14.4-1.2-21.5c-0.1-4.9-0.2-9.8-0.4-14.7c-0.7-29-1.4-58.9-1.2-88.4l2.6-180.6c0.1-4,1.1-5.1,5-5.5l38.6-5.4
		c10-1.4,11.6-3.1,12-12.7L518.6,668.4L518.6,668.4z"/>
</g>
</svg>
