<svg xmlns="http://www.w3.org/2000/svg" viewBox="0 0 64 64">
	<path d="M5.1 30c2.1.2 4 .6 5.5 1.2 3.5 1.2 6.7 2.9 10.1 4.6.5.2.6.2.9-.2 6.4-7.5 13.1-14.8 20.3-21.8 3.4-3.2 6.7-6.3 10.5-8.8 1.5-1.1 3.2-2.1 4.9-2.6 1.1-.3 2.1-.5 3.2-.2 1.8.6 2.6 2.3 1.5 4-.5.8-1.2 1.5-1.8 2.1l-8.5 8.4c-7.8 8.4-14.2 17.7-19.5 27.8-2.9 5.3-5.3 10.8-7.5 16.3-.5.9-.9 1.4-2 1.2-.8-.2-1.1-.5-1.4-1.1-1.5-2.9-3.1-5.6-4.6-8.4C13 46.7 8.9 41.1 4 36.5c-.5-.4-1-1-1.6-1.5-.9-.8-.9-1.5-.9-2.4.3-1.5 1.4-2.3 2.9-2.6h.7z" fill="#f69552"/>
</svg>