<?xml version="1.0" encoding="utf-8"?>
<!-- Generator: Adobe Illustrator 25.0.1, SVG Export Plug-In . SVG Version: 6.00 Build 0)  -->
<svg version="1.1" id="Layer_1" xmlns="http://www.w3.org/2000/svg" xmlns:xlink="http://www.w3.org/1999/xlink" x="0px" y="0px"
	 viewBox="0 0 64 64" style="enable-background:new 0 0 64 64;" xml:space="preserve">
<style type="text/css">
	.st0{fill:#AAAAAA;}
</style>
<path class="st0" d="M48.1,11.1c2.6,0,4.7,2.1,4.7,4.7v32.3c0,2.6-2.1,4.7-4.7,4.7H15.9c-2.6,0-4.7-2.1-4.7-4.7V15.9
	c0-2.6,2.1-4.7,4.7-4.7H48.1 M48.1,8H15.9C11.5,8,8,11.5,8,15.9v32.3c0,4.3,3.5,7.9,7.9,7.9h32.3c4.3,0,7.9-3.5,7.9-7.9V15.9
	C56,11.5,52.5,8,48.1,8L48.1,8z"/>
</svg>
