<svg xmlns="http://www.w3.org/2000/svg" viewBox="0 0 512 512"  xmlns:v="https://vecta.io/nano"><path d="M9.9 112.8h43.6v258.8c21.2-3.2 42.5-4.9 63.9-5 29.9-.5 59.6 4 88 13.3l24.1 19.3c-14.2-1.6-57-2.4-71-2.4-46.2-.4-92.1 8.5-134.8 26.2l-13.9 6 .1-316.2zm478.2 310.3c-42.7-17.7-88.5-26.6-134.8-26.2-14.1 0-54.4 1.6-68.5 3.2l21.6-19.8c28.5-9.4 58.4-14 88.4-13.5 21.4.1 42.8 1.8 63.9 5v-259h43.6v316.3l-14.2-6z" fill="#0da0c5"/><path d="M240.6 396.8c-21-13.7-59.6-29.8-123.3-29.8-17.6.1-35.2 1.2-52.7 3.5l-11.1 1.4V91.3l7.7-1.8c20-4.4 40.5-6.7 61-6.7 38.9 0 93.2 9 131.2 51.9l2.5 2.5v269.7l-15.3-10.1zM256 137.1l2.5-2.8c38-43 92.4-51.9 131.2-51.9 20.5 0 41 2.3 61 6.7l7.7 1.8v280.6l-11.1-1.4c-17.4-2.2-34.9-3.4-52.4-3.5-64 0-102.3 16.4-123.3 29.8l-15.4 9.9-.2-269.2z" fill="#fff"/><path d="M502 102.9h-33.6V91.4c.2-4.6-2.8-8.7-7.1-9.9-23.4-6.1-47.4-9.2-71.6-9.1-39.7 0-93.8 8.9-133.8 49.6-39.7-41.1-94.2-49.6-133.8-49.6-24.1-.1-48.2 3-71.6 9.1-4.4 1.3-7.3 5.4-7.1 9.9v11.4H9.9a9.86 9.86 0 0 0-9.9 9.9v317a9.86 9.86 0 0 0 9.9 9.9c1.7 0 3.4-.4 4.9-1.3 1-.5 100.2-54.8 238.8-19.8h2.4c.8.1 1.6.1 2.4 0 138.9-35.2 238.2 19 238.8 19.8 3.1 1.8 6.9 1.8 9.9 0 3.1-1.8 4.9-5 5-8.5v-317a10.03 10.03 0 0 0-10.1-9.9h0zm-482.2 311V122.7h23.7v248.9c-.1 5.5 4.3 10 9.8 10 .5 0 1.1 0 1.6-.1 20.5-3.1 41.3-4.8 62-5a257.11 257.11 0 0 1 84.8 12.8c-61.7-7.4-124.3 1.1-181.9 24.6h0zM246 388.5c-20.6-13.5-60.9-31.7-129-31.7-18.1 0-36.1 1.2-54 3.5V99.2c19.3-4.3 39.1-6.5 58.9-6.6 37.1 0 88.3 8.5 123.9 48.6l.2 247.3zm19.9-247.2c35.5-39.7 86.7-48.6 123.9-48.6 19.8.1 39.5 2.3 58.9 6.6v261.1a437.62 437.62 0 0 0-53.7-3.6c-67.7 0-108.1 18.2-129 31.7V141.3zm226.2 272.6c-57.7-23.6-120.4-32-182.3-24.5 27.5-9 56.3-13.3 85.2-12.8 20.9.1 41.8 1.7 62.4 4.9 5.4.8 10.5-2.9 11.3-8.3.1-.5.1-1.1.1-1.6V122.7h23.7l-.4 291.2z"/></svg>