<svg xmlns="http://www.w3.org/2000/svg" height="512" viewBox="0 0 511.997 511.997" width="512"  xmlns:v="https://vecta.io/nano"><path d="M493.494 100.47h-22.241v291.713s-29.902 8.709-100.544-12.58c-47.63-14.354-83.261 2.965-101.421 15.771-3.863 2.724-8.453 7.228-13.18 7.228h-.59c-4.726 0-9.317-4.503-13.179-7.227-18.161-12.807-53.792-30.126-101.422-15.772-70.642 21.29-100.544 12.58-100.544 12.58V100.47H18.131a10.82 10.82 0 0 0-10.817 10.817V415.43a10.82 10.82 0 0 0 10.818 10.818h194.326c5.733 0 11.061 3.208 13.511 8.391 5.284 11.18 16.658 18.915 29.845 18.915s24.561-7.735 29.845-18.915c2.45-5.183 7.777-8.391 13.511-8.391h194.326a10.82 10.82 0 0 0 10.817-10.817V111.288c-.002-5.975-4.845-10.818-10.819-10.818z" fill="#f87c68"/><path d="M62.647 415.43v-21.515c-15.26.312-22.274-1.731-22.274-1.731V100.47H18.131a10.82 10.82 0 0 0-10.817 10.817V415.43a10.82 10.82 0 0 0 10.817 10.818h55.333a10.82 10.82 0 0 1-10.817-10.818z" fill="#ec625e"/><path d="M464.59 77.189c-14.41 1.156-45.175.739-93.882-13.94-70.641-21.289-114.895 27.096-114.895 27.096l-7.708 10.125v291.393l7.708 10.344v.395h.294c4.727 0 9.317-1.504 13.18-4.228 18.161-12.807 53.791-30.126 101.421-15.771 70.642 21.289 103.544 12.58 103.544 12.58V86.127c.001-5.229-4.449-9.356-9.662-8.938z" fill="#dbedff"/><path d="M285.152 69.598c-18.873 9.307-29.339 20.747-29.339 20.747l-7.708 10.125v291.393l7.708 10.344v.395h.294c4.727 0 9.317-1.504 13.18-4.228a118.82 118.82 0 0 1 15.865-9.416z" fill="#b5dcff"/><path d="M47.035 77.189c14.41 1.156 45.175.739 93.882-13.94 70.642-21.289 114.896 27.096 114.896 27.096v312.257h-.295c-4.727 0-9.317-1.504-13.18-4.228-18.161-12.807-53.791-30.126-101.421-15.771-70.642 21.289-103.544 12.58-103.544 12.58V86.127c0-5.229 4.45-9.356 9.662-8.938z" fill="#dbedff"/><path d="m70.373 77.146c-10.156.69-17.909.479-23.337.043-5.213-.418-9.663 3.708-9.663 8.938v309.056s10.714 2.823 33 1.312z" fill="#b5dcff"/><path d="M440.124 121.619c-19.94-1.531-42.504-6.061-67.065-13.462-29.507-8.894-58.149-7.521-85.133 4.078-3.806 1.636-5.564 6.047-3.929 9.853a7.5 7.5 0 0 0 9.853 3.929c23.651-10.167 48.846-11.345 74.881-3.498 25.595 7.714 49.229 12.442 70.245 14.056.195.016.39.022.582.022a7.5 7.5 0 0 0 .566-14.978zm-.001 31.875c-19.935-1.53-42.498-6.059-67.064-13.462-29.507-8.894-58.149-7.521-85.133 4.078-3.806 1.636-5.564 6.047-3.929 9.853a7.5 7.5 0 0 0 9.853 3.929c23.651-10.167 48.846-11.345 74.881-3.498 25.601 7.715 49.234 12.444 70.246 14.056a7.1 7.1 0 0 0 .581.022 7.5 7.5 0 0 0 .565-14.978zm.001 159.377c-19.941-1.531-42.505-6.061-67.065-13.463-29.505-8.894-58.146-7.52-85.133 4.079-3.806 1.636-5.564 6.047-3.929 9.853a7.5 7.5 0 0 0 9.853 3.929c23.652-10.167 48.847-11.343 74.881-3.499 25.594 7.714 49.228 12.443 70.245 14.057.195.016.39.022.582.022a7.5 7.5 0 0 0 .566-14.978zm0 31.875c-19.94-1.531-42.504-6.061-67.065-13.462-29.507-8.893-58.149-7.521-85.133 4.078-3.806 1.636-5.564 6.047-3.929 9.853a7.5 7.5 0 0 0 9.853 3.929c23.651-10.167 48.846-11.345 74.881-3.498 25.595 7.714 49.229 12.442 70.245 14.056.195.016.39.022.582.022a7.5 7.5 0 0 0 .566-14.978zm0-159.376c-19.941-1.531-42.505-6.061-67.065-13.463-29.505-8.893-58.146-7.521-85.133 4.079-3.806 1.636-5.564 6.047-3.929 9.853a7.5 7.5 0 0 0 9.853 3.929c23.652-10.167 48.847-11.344 74.881-3.499 25.594 7.714 49.228 12.443 70.245 14.057.195.016.39.022.582.022a7.5 7.5 0 0 0 .566-14.978zm-.001 63.749c-19.935-1.529-42.498-6.058-67.064-13.461-29.505-8.894-58.148-7.521-85.133 4.078-3.806 1.636-5.564 6.047-3.929 9.853a7.5 7.5 0 0 0 9.853 3.929c23.65-10.166 48.846-11.344 74.881-3.498 25.601 7.715 49.234 12.444 70.246 14.057.195.015.389.021.581.021a7.5 7.5 0 0 0 7.47-6.927c.317-4.13-2.774-7.734-6.905-8.052z"/><path d="M440.124 217.245c-19.94-1.531-42.504-6.061-67.065-13.462-29.504-8.894-58.148-7.521-85.133 4.078-3.806 1.636-5.564 6.047-3.929 9.853a7.5 7.5 0 0 0 9.853 3.929c23.654-10.167 48.847-11.344 74.881-3.498 25.595 7.714 49.229 12.442 70.245 14.056.195.016.39.022.582.022a7.5 7.5 0 0 0 .566-14.978zm-.001 63.749c-19.938-1.529-42.502-6.059-67.064-13.461-29.505-8.893-58.146-7.521-85.133 4.079-3.806 1.636-5.564 6.047-3.929 9.853a7.5 7.5 0 0 0 9.853 3.929c23.652-10.167 48.847-11.343 74.881-3.499 25.597 7.715 49.23 12.444 70.246 14.057.195.015.389.021.581.021a7.5 7.5 0 0 0 7.47-6.927c.317-4.13-2.774-7.734-6.905-8.052zM72.44 136.597l.582-.022c21.017-1.613 44.65-6.342 70.245-14.056 26.035-7.846 51.229-6.67 74.881 3.498 3.805 1.636 8.217-.124 9.853-3.929a7.5 7.5 0 0 0-3.929-9.853c-26.984-11.6-55.627-12.971-85.133-4.078-24.562 7.401-47.125 11.931-67.065 13.462a7.5 7.5 0 0 0 .566 14.978zm0 31.875l.581-.022c21.012-1.611 44.646-6.341 70.246-14.056 26.035-7.846 51.229-6.671 74.881 3.498 3.805 1.635 8.217-.124 9.853-3.929a7.5 7.5 0 0 0-3.929-9.853c-26.984-11.6-55.627-12.97-85.133-4.078-24.566 7.403-47.13 11.932-67.064 13.462a7.5 7.5 0 0 0 .565 14.978zm0 159.377l.582-.022c21.018-1.613 44.651-6.343 70.245-14.057 26.036-7.848 51.229-6.668 74.881 3.499 3.805 1.635 8.217-.124 9.853-3.929a7.5 7.5 0 0 0-3.929-9.853c-26.984-11.6-55.627-12.971-85.133-4.079-24.561 7.402-47.124 11.932-67.065 13.463a7.5 7.5 0 0 0 .566 14.978zm0 31.875l.582-.022c21.017-1.613 44.65-6.342 70.245-14.056 26.035-7.846 51.229-6.671 74.881 3.498 3.805 1.634 8.217-.124 9.853-3.929a7.5 7.5 0 0 0-3.929-9.853c-26.984-11.6-55.627-12.971-85.133-4.078-24.562 7.401-47.125 11.931-67.065 13.462a7.5 7.5 0 0 0 .566 14.978zm0-159.376l.582-.022c21.018-1.613 44.651-6.343 70.245-14.057 26.036-7.847 51.229-6.668 74.881 3.499 3.805 1.635 8.217-.124 9.853-3.929a7.5 7.5 0 0 0-3.929-9.853c-26.984-11.6-55.627-12.971-85.133-4.079-24.561 7.402-47.124 11.932-67.065 13.463a7.5 7.5 0 0 0 .566 14.978zm0 63.75l.581-.021c21.012-1.612 44.646-6.342 70.246-14.057 26.035-7.846 51.229-6.671 74.881 3.498 3.805 1.635 8.217-.124 9.853-3.929a7.5 7.5 0 0 0-3.929-9.853c-26.983-11.599-55.625-12.971-85.133-4.078-24.566 7.403-47.13 11.932-67.064 13.461a7.5 7.5 0 0 0 .565 14.979z"/><path d="M72.44 232.223l.582-.022c21.017-1.613 44.65-6.342 70.245-14.056 26.034-7.845 51.228-6.671 74.881 3.498 3.805 1.634 8.217-.124 9.853-3.929a7.5 7.5 0 0 0-3.929-9.853c-26.986-11.6-55.627-12.973-85.133-4.078-24.562 7.401-47.125 11.931-67.065 13.462a7.5 7.5 0 0 0 .566 14.978zm0 63.75l.581-.021c21.016-1.612 44.649-6.342 70.246-14.057 26.036-7.848 51.229-6.668 74.881 3.499 3.805 1.636 8.217-.124 9.853-3.929a7.5 7.5 0 0 0-3.929-9.853c-26.984-11.6-55.627-12.972-85.133-4.079-24.562 7.402-47.127 11.932-67.064 13.461a7.5 7.5 0 0 0 .565 14.979zM493.68 93.315h-11.741v-6.843c0-9.59-8.181-17.176-17.762-16.413-11.067.885-35.3.939-73.262-8.687a7.5 7.5 0 1 0-3.687 14.539c38.054 9.649 63.502 10.276 78.148 9.099a1.45 1.45 0 0 1 1.562 1.462v302.656c-28.41 3.065-66.362-5.068-93.88-13.36-61.461-18.523-101.194 13.3-109.56 17.834V93.812c8.104-7.601 40.767-34.523 89.38-26.701a7.5 7.5 0 1 0 2.385-14.809c-51.045-8.224-86.269 16.71-99.283 28.065-29.839-25.878-72.521-37.373-117.041-23.953-47.783 14.4-77.601 14.725-91.118 13.646-9.594-.77-17.761 6.84-17.761 16.412v6.843H18.317C8.217 93.315 0 101.531 0 111.632v304.143c0 10.101 8.218 18.317 18.318 18.317h194.326c2.912 0 5.553 1.607 6.729 4.097 14.556 30.796 58.641 30.909 73.25 0 1.177-2.488 3.818-4.097 6.73-4.097h194.326c10.1 0 18.316-8.217 18.316-18.317V273.54a7.5 7.5 0 1 0-15 0v142.234a3.32 3.32 0 0 1-3.316 3.317H299.354c-8.684 0-16.648 4.979-20.291 12.687-9.168 19.395-36.926 19.472-46.128.001-3.642-7.707-11.606-12.688-20.291-12.688H18.318A3.32 3.32 0 0 1 15 415.774V111.632a3.32 3.32 0 0 1 3.317-3.317H30.06v287.214a7.5 7.5 0 0 0 5.581 7.25c1.426.378 35.778 9.005 107.627-12.649 34.763-10.476 68.315-4.052 94.936 14.721 10.293 7.257 24.622 7.737 35.593-.001 16.077-11.338 49.785-28.324 94.935-14.72 71.852 21.653 106.201 13.026 107.627 12.649a7.5 7.5 0 0 0 5.581-7.25V108.315h11.741a3.32 3.32 0 0 1 3.317 3.317V238.54a7.5 7.5 0 1 0 15 0V111.632c-.001-10.101-8.218-18.317-18.318-18.317zM45.06 86.472a1.45 1.45 0 0 1 1.562-1.462c14.57 1.172 46.505.876 96.646-14.235 40.607-12.234 79.401-1.143 105.231 23.043v299.784c-4.302-2.329-46.474-36.849-109.56-17.833-4.045 1.219-8.491 2.485-12.605 3.584l-.149.04c-24.15 6.442-56.276 12.415-81.126 9.739l.001-302.66z"/></svg>