<svg xmlns="http://www.w3.org/2000/svg" viewBox="0 0 512 512"  xmlns:v="https://vecta.io/nano"><path d="M324.156 230.727H187.843c-4.199 0-7.604 3.405-7.604 7.604v71.676c0 4.199 3.405 7.604 7.604 7.604h136.313c4.199 0 7.604-3.405 7.604-7.604v-71.676c0-4.199-3.405-7.604-7.604-7.604zm-7.604 71.676H195.447v-56.468h121.105v56.468zm187.844-55.346c-4.199 0-7.604 3.405-7.604 7.604v143.29H105.444c-4.199 0-7.604 3.405-7.604 7.604s3.405 7.604 7.604 7.604h398.952c4.199 0 7.604-3.405 7.604-7.604V254.661c0-4.2-3.405-7.604-7.604-7.604zm0-148.216H7.604c-4.199 0-7.604 3.405-7.604 7.604v299.109c0 4.199 3.405 7.604 7.604 7.604h62.354c4.199 0 7.604-3.405 7.604-7.604s-3.405-7.604-7.604-7.604h-54.75V189.602h19.784c4.199 0 7.604-3.405 7.604-7.604v-34.486h426.806v34.486c0 4.199 3.405 7.604 7.604 7.604h19.786v29.572c0 4.199 3.405 7.604 7.604 7.604s7.604-3.405 7.604-7.604V106.445c0-4.2-3.405-7.604-7.604-7.604zm-7.604 75.554H484.61v-34.486c0-4.199-3.405-7.604-7.604-7.604H34.992c-4.199 0-7.604 3.405-7.604 7.604v34.485h-12.18v-60.345h481.584v60.346zm-34.321 32.712c-1.158-2.88-3.95-4.767-7.054-4.767H56.58a7.6 7.6 0 0 0-7.054 4.767c-18.147 45.127-18.147 89 0 134.126 1.159 2.879 3.951 4.767 7.054 4.767h398.837a7.6 7.6 0 0 0 7.054-4.767c18.145-45.127 18.145-88.999 0-134.126zM61.789 330.792c-14.15-38.048-14.15-75.196 0-113.244h12.697c-11.178 16.666-17.227 36.281-17.227 56.646 0 20.346 6.038 39.943 17.194 56.598H61.789zm90.062-18.544c-17.782-3.545-31.227-19.269-31.227-38.079s13.444-34.533 31.227-38.079v76.158zm0-91.572c-26.208 3.709-46.435 26.278-46.435 53.493s20.227 49.785 46.435 53.493v3.129H93.529a86.35 86.35 0 0 1-21.061-56.598c0-20.908 7.48-40.893 21.105-56.646h58.279v3.129zm193.09 110.116H167.059V217.547h177.882v113.245zm80.59-113.245l-3.655 20.508c-3.976-7.618-9.186-14.558-15.434-20.508h19.089zm-65.382 18.544c17.783 3.545 31.227 19.269 31.227 38.079s-13.445 34.533-31.227 38.079v-76.158zm19.996 94.701H360.15l-.001-3.129c26.208-3.709 46.435-26.278 46.435-53.493s-20.228-49.785-46.435-53.493v-3.129h19.893c21.62 10.431 35.515 32.499 35.515 56.646-.001 24.109-13.85 46.146-35.412 56.598zm70.061 0h-43.715c15.031-14.338 24.051-34.406 24.258-55.848l10.229-57.397h9.228c14.151 38.048 14.151 75.195 0 113.245z"/></svg>