<svg xmlns="http://www.w3.org/2000/svg" viewBox="0 0 512 512"  xmlns:v="https://vecta.io/nano"><path d="M504.396 405.555H7.604v-299.11h496.792z" fill="#515e64"/><path d="M7.604 181.998h27.388V139.91h442.015v42.088h27.389v-75.553H7.604z" fill="#181423"/><path d="M56.579 338.396c-17.328-43.09-17.328-85.362 0-128.452h398.838c17.328 43.092 17.328 85.36 0 128.452H56.579z" fill="#e8ebf2"/><g fill="#2f2b39"><path d="M277.205 338.396V209.992h104.654c24.369 11.059 41.301 35.624 41.301 64.202 0 28.479-16.931 53.143-41.301 64.202"/><path d="M90.113 338.396c-15.659-16.833-25.25-39.441-25.25-64.202 0-24.859 9.591-47.369 25.25-64.202h211.558v128.404"/></g><path d="M352.545 320.604c25.646 0 46.435-20.789 46.435-46.435s-20.789-46.435-46.435-46.435m-193.09.001c-25.646 0-46.435 20.789-46.435 46.435s20.789 46.435 46.435 46.435" fill="#edf0f7"/><path d="M159.46 209.94h193.09v128.456H159.46z" fill="#96a0a9"/><path d="M187.848 238.328h136.314v71.68H187.848z" fill="#75d4fe"/><path d="M187.843 317.611h136.313c4.199 0 7.604-3.405 7.604-7.604v-71.676c0-4.199-3.405-7.604-7.604-7.604H187.843c-4.199 0-7.604 3.405-7.604 7.604v71.676c0 4.2 3.405 7.604 7.604 7.604zm7.604-71.676h121.105v56.468H195.447v-56.468zm301.345 152.016H105.444c-4.199 0-7.604 3.405-7.604 7.604h0c0 4.199 3.405 7.604 7.604 7.604h398.952c4.199 0 7.604-3.405 7.604-7.604V254.661c0-4.199-3.405-7.604-7.604-7.604h0c-4.199 0-7.604 3.405-7.604 7.604v143.29zm7.604-299.11H7.604c-4.199 0-7.604 3.405-7.604 7.604v299.109c0 4.199 3.405 7.604 7.604 7.604h62.353c4.199 0 7.604-3.405 7.604-7.604h0c0-4.199-3.405-7.604-7.604-7.604h-54.75V189.602h19.784c4.199 0 7.604-3.405 7.604-7.604v-34.486h426.806v34.486c0 4.199 3.405 7.604 7.604 7.604h19.785v29.572c0 4.199 3.405 7.604 7.604 7.604h0c4.199 0 7.604-3.405 7.604-7.604V106.445c.002-4.2-3.403-7.604-7.602-7.604zm-19.785 75.553v-34.485c0-4.199-3.405-7.604-7.604-7.604H34.992c-4.199 0-7.604 3.405-7.604 7.604v34.485h-12.18v-60.345h481.584v60.346H484.61v-.001zM352.545 345.999h102.871a7.6 7.6 0 0 0 7.054-4.767c18.145-45.126 18.145-88.999 0-134.126-1.158-2.88-3.95-4.767-7.054-4.767H56.58a7.6 7.6 0 0 0-7.054 4.767c-18.147 45.127-18.147 89 0 134.126 1.159 2.879 3.951 4.767 7.054 4.767h295.965zm-200.694-33.751c-17.782-3.545-31.227-19.269-31.227-38.079s13.444-34.533 31.227-38.079v76.158zm0-91.572c-26.208 3.709-46.435 26.278-46.435 53.493s20.227 49.785 46.435 53.493v3.129H93.529a86.35 86.35 0 0 1-21.061-56.598c0-20.908 7.48-40.893 21.105-56.646h58.279v3.129zm208.298 15.415c17.783 3.545 31.227 19.269 31.227 38.079s-13.445 34.533-31.227 38.079v-76.158zm0 91.572c26.208-3.709 46.435-26.278 46.435-53.493s-20.228-49.785-46.435-53.493v-3.129h19.893c21.62 10.431 35.515 32.499 35.515 56.646 0 24.11-13.849 46.146-35.411 56.598H360.15l-.001-3.129zm61.727-89.607c-3.976-7.618-9.186-14.558-15.434-20.508h19.089l-3.655 20.508zm28.33 92.736h-43.715c15.03-14.338 24.051-34.406 24.258-55.848l10.229-57.397h9.228c14.151 38.048 14.151 75.195 0 113.245zM344.941 217.547v113.244H167.059V217.547h177.882zm-283.152 0h12.697c-11.178 16.666-17.227 36.281-17.227 56.646 0 20.346 6.038 39.943 17.194 56.598H61.789c-14.151-38.048-14.151-75.196 0-113.244z"/></svg>