<svg xmlns="http://www.w3.org/2000/svg" viewBox="0 0 512 512"  xmlns:v="https://vecta.io/nano"><path d="M121.3 382.3l-35.1 50.3-20-15.4L91 381.6zm273.2-2l35 50.3 20-15.4-24.8-35.6zM25.4 83.9h462.8v288H25.4z" fill="#0da0c5"/><path d="M63.4 121.9h386.1v212.4H63.4z" fill="#fff"/><path d="M443 128.4v200H69v-200h374m10-20H59c-5.5 0-10 4.5-10 10v220c0 5.5 4.5 10 10 10h394c5.5 0 10-4.5 10-10v-220c0-5.5-4.5-10-10-10h0zm22-39H37c-14.9 0-27 12.1-27 27v264.1c0 14.9 12.1 27 27 27h33.3l-9.8 13.3c-8.6 11.6-6.1 28 5.5 36.6h0c4.7 3.4 10.1 5.1 15.5 5.1 8 0 15.9-3.7 21.1-10.6l32.7-44.4h242.1l32.7 44.4c5.1 7 13.1 10.6 21.1 10.6 5.4 0 10.8-1.7 15.5-5.1h0c11.6-8.6 14.1-25 5.5-36.6l-9.8-13.3H475c14.9 0 27-12.1 27-27V96.4c0-14.9-12.1-27-27-27zM86.5 420.1c-1.7 2.3-4 2.5-5 2.5-1.3 0-2.6-.4-3.6-1.2-1.7-1.3-2.3-2.9-2.4-4-.2-1.2-.1-2.9 1.1-4.6l18.6-25.2h15.3l-24 32.5zm349.6-7.4c2 2.7 1.4 6.6-1.3 8.6-1.1.8-2.3 1.2-3.6 1.2-.9 0-3.3-.2-5-2.5l-24-32.5h15.3l18.6 25.2zm45.9-52.1c0 3.9-3.1 7-7 7H37c-3.9 0-7-3.1-7-7V96.4c0-3.9 3.1-7 7-7h438c3.9 0 7 3.1 7 7v264.2zm-281.1-55.2c-1.8 0-3.5-.5-5.1-1.4-3.1-1.8-4.9-5.1-4.9-8.6v-135c0-3.6 1.9-6.8 5-8.6s6.9-1.8 10-.1l120.3 67.7a9.92 9.92 0 0 1 5.1 8.7c0 3.6-2 6.9-5.1 8.7l-120.3 67.3a10.09 10.09 0 0 1-5 1.3zm10-127.9v100.8l89.9-50.2-89.9-50.6z"/></svg>