<?xml version="1.0" encoding="utf-8"?>
<!-- Generator: Adobe Illustrator 25.0.1, SVG Export Plug-In . SVG Version: 6.00 Build 0)  -->
<svg version="1.1" id="Layer_1" xmlns="http://www.w3.org/2000/svg" xmlns:xlink="http://www.w3.org/1999/xlink" x="0px" y="0px"
	 viewBox="0 0 448 512" style="enable-background:new 0 0 448 512;" xml:space="preserve">
<style type="text/css">
	.st0{fill:#FFFFFF;}
</style>
<rect x="29.5" y="75" class="st0" width="383.5" height="354.5"/>
<path d="M437.5,411.5v-311c0-26.5-21.5-48-48-48h-332c-26.5,0-48,21.5-48,48v311c0,26.5,21.5,48,48,48h332
	C416,459.5,437.5,438,437.5,411.5z M57.5,427.5c-8.8,0-16-7.2-16-16v-311c0-8.8,7.2-16,16-16h332c8.8,0,16,7.2,16,16v311
	c0,8.8-7.2,16-16,16H57.5z M255.5,167.5v-16c0-4.4-3.6-8-8-8h-144c-4.4,0-8,3.6-8,8v16c0,4.4,3.6,8,8,8h144
	C251.9,175.5,255.5,171.9,255.5,167.5z M351.5,263.5v-16c0-4.4-3.6-8-8-8h-240c-4.4,0-8,3.6-8,8v16c0,4.4,3.6,8,8,8h240
	C347.9,271.5,351.5,267.9,351.5,263.5z M191.5,359.5v-16c0-4.4-3.6-8-8-8h-80c-4.4,0-8,3.6-8,8v16c0,4.4,3.6,8,8,8h80
	C187.9,367.5,191.5,363.9,191.5,359.5z"/>
</svg>
