<?xml version="1.0" encoding="utf-8"?>
<!-- Generator: Adobe Illustrator 25.0.1, SVG Export Plug-In . SVG Version: 6.00 Build 0)  -->
<svg version="1.1" id="Layer_1" xmlns="http://www.w3.org/2000/svg" xmlns:xlink="http://www.w3.org/1999/xlink" x="0px" y="0px"
	 viewBox="0 0 576 512" style="enable-background:new 0 0 576 512;" xml:space="preserve">
<style type="text/css">
	.st0{fill:#FCFCFC;}
</style>
<rect x="34.9" y="91.8" class="st0" width="351.2" height="331.4"/>
<polygon class="st0" points="396,212 539.5,117.7 539.5,396.8 398.6,306 "/>
<path d="M533.9,96.1c-6.2,0-12.5,1.8-18.2,5.7L406,171.7v-59.8c0-26.4-23.2-47.8-51.8-47.8H61.8C33.2,64.1,10,85.5,10,111.9v288.4
	c0,26.4,23.2,47.8,51.8,47.8h292.4c28.6,0,51.8-21.4,51.8-47.8v-59.8l109.6,69.9c5.7,4,12.1,5.7,18.2,5.7c16.6,0,32.1-13,32.1-31.5
	v-257C566,109.1,550.5,96.1,533.9,96.1L533.9,96.1z M374,400.3c0,8.6-9.1,15.8-19.8,15.8H61.8c-10.7,0-19.8-7.2-19.8-15.8V111.9
	c0-8.6,9.1-15.8,19.8-15.8h292.4c10.7,0,19.8,7.2,19.8,15.8L374,400.3L374,400.3z M534,384.6l-1.2-1.3L406,302.5v-92.9l128-81.5
	V384.6z"/>
</svg>
