<?xml version="1.0" encoding="utf-8"?>
<!-- Generator: Adobe Illustrator 25.0.1, SVG Export Plug-In . SVG Version: 6.00 Build 0)  -->
<svg version="1.1" id="Layer_1" xmlns="http://www.w3.org/2000/svg" xmlns:xlink="http://www.w3.org/1999/xlink" x="0px" y="0px"
	 viewBox="0 0 448 512" style="enable-background:new 0 0 448 512;" xml:space="preserve">
<path d="M448,432V80c0-26.5-21.5-48-48-48H48C21.5,32,0,53.5,0,80v352c0,26.5,21.5,48,48,48h352C426.5,480,448,458.5,448,432z
	 M48,432V80h352v352H48z M96,152v16c0,8.8,7.2,16,16,16h128c8.8,0,16-7.2,16-16v-16c0-8.8-7.2-16-16-16H112
	C103.2,136,96,143.2,96,152z M96,248v16c0,8.8,7.2,16,16,16h224c8.8,0,16-7.2,16-16v-16c0-8.8-7.2-16-16-16H112
	C103.2,232,96,239.2,96,248z M96,344v16c0,8.8,7.2,16,16,16h64c8.8,0,16-7.2,16-16v-16c0-8.8-7.2-16-16-16h-64
	C103.2,328,96,335.2,96,344z"/>
</svg>
